<svg xmlns="http://www.w3.org/2000/svg" viewBox="0 0 17.39 17.3"><defs><style>.cls-1{fill:#231815;}</style></defs><title>logo-plus</title><g id="レイヤー_2" data-name="レイヤー 2"><g id="logo-ototoy-bccks"><path class="cls-1" d="M9.74,7.84H17.1a.29.29,0,0,1,.29.29v1a.29.29,0,0,1-.29.29H9.74a.29.29,0,0,0-.29.29V17a.29.29,0,0,1-.28.29h-1A.29.29,0,0,1,7.87,17V9.71a.29.29,0,0,0-.29-.29H.29A.29.29,0,0,1,0,9.13v-1a.29.29,0,0,1,.29-.29H7.58a.29.29,0,0,0,.29-.29V.29A.29.29,0,0,1,8.16,0h1a.29.29,0,0,1,.28.29V7.55a.29.29,0,0,0,.29.29"/></g></g></svg>