<svg xmlns="http://www.w3.org/2000/svg" viewBox="0 0 154.08 28.83"><defs><style>.cls-1{fill:#231815;}</style></defs><title>logo-bccks</title><g id="レイヤー_2" data-name="レイヤー 2"><g id="logo-ototoy-bccks"><path class="cls-1" d="M125.78,8.88C125.78,5.57,127.5,0,139,0c8.09,0,13,2.37,13.73,2.73,0,.21-1.07,3.48-1.31,4.14,0,0-3.91-2.3-12.17-2.3-3.34,0-8.93.55-8.93,4.21,0,3.22,3.82,3.7,5.47,3.75l7.78.2c3.89,0,10.47,1.65,10.47,7.82,0,5-5,8.28-12.78,8.28a38.17,38.17,0,0,1-14-2.31l2-4c.7.34,4.05,1.74,11.34,1.74,6.58,0,8.92-2,8.92-3.65,0-3-4-3.3-5.71-3.3l-7.25-.19c-5-.16-10.77-2.4-10.77-8.23"/><path class="cls-1" d="M101.73.81V13.66s.34-.08.34-.15c2.55-1.71,15.72-12,17.11-13L122,4,108.58,14.59l14.7,9.72c-.14.25-2,3.74-2.19,4l-16.83-11-2.53,1.7v9H97.16V.81Z"/><path class="cls-1" d="M48,0A23,23,0,0,1,61.39,4.59c0,.21-1.69,3.89-1.77,4.35A17.8,17.8,0,0,0,47.93,4.58c-8,0-11.14,4.89-11.14,9.74s3.32,9.93,10.51,9.93a19.87,19.87,0,0,0,12.4-4.78c.13.42,1.63,4.08,1.69,4.29-.09.07-4.84,5.07-14.23,5.07C40.87,28.83,32,24.37,32,14.47,32,5.81,38.43,0,48,0"/><path class="cls-1" d="M80.23,0A21.36,21.36,0,0,1,92.39,3.73c0,.21-1.56,4-1.64,4.45a16.46,16.46,0,0,0-10.57-3.6c-8,0-11.14,4.89-11.14,9.74s3.33,9.93,10.52,9.93,10.76-3.82,10.93-4c.14.41,1.92,3.9,2,4.11-.09.07-3.89,4.43-13.07,4.43-6.29,0-15.15-4.46-15.15-14.36C64.26,5.81,70.68,0,80.23,0"/><path class="cls-1" d="M24.4,15.07l-.18-.13.24-.13a6.79,6.79,0,0,0,2.76-6c0-4-3-8-11.79-8H0V28H15.53c10.14,0,11.83-3.91,11.83-7.45a6.49,6.49,0,0,0-3-5.5m-10,8.38H4.57v-6.3H17c4,0,5.71,1.43,5.71,3,0,3.81-5.56,3.29-8.38,3.29M22.64,9.1c0,2.48-1.82,3.47-5.26,3.47H4.57V5.38H15.43c4.9,0,7.2,1.07,7.21,3.7Z"/></g></g></svg>