<svg xmlns="http://www.w3.org/2000/svg" viewBox="0 0 172.03 28.82"><defs><style>.cls-1{fill:#231815;}</style></defs><title>logo-ototoy</title><g id="レイヤー_2" data-name="レイヤー 2"><g id="logo-ototoy-bccks"><path class="cls-1" d="M128.12,0c-3.91,0-14.29.86-14.29,14.41s10.47,14.41,14.1,14.41h.37c3.63,0,13.86-1.57,13.86-14.42C142.16.84,132,0,128.12,0m0,23c-3.13,0-6.3-1.57-6.3-8.51,0-6.7,2.4-9.12,6.3-9.12s6,3.05,6,9.12c0,5.55-2.85,8.51-6,8.51"/><path class="cls-1" d="M71.2,0C67.29,0,56.92.86,56.92,14.41S67.39,28.82,71,28.82h.37c3.63,0,13.86-1.57,13.86-14.42C85.24.84,75.1,0,71.2,0m0,23c-3.13,0-6.3-1.57-6.3-8.51,0-6.7,2.41-9.12,6.3-9.12s6,3.05,6,9.12c0,5.55-2.85,8.51-6,8.51"/><path class="cls-1" d="M38.82,6.59s.21,19.9,0,20.47a1,1,0,0,1-.86.57h8.91s.47,0,0-.53.06-20.33.06-20.33,4.93,0,5.92-.42c2.58-1,3.29-5.93,3.29-5.93A3.62,3.62,0,0,1,54,1C48.89.94,37.2.53,33.64,1.09A3.74,3.74,0,0,0,31,2.85a30.88,30.88,0,0,0-.25,4.81,3.54,3.54,0,0,1,2-1.08c1.65-.17,6,0,6,0"/><path class="cls-1" d="M14.28,0C10.37,0,0,.86,0,14.41S10.47,28.82,14.09,28.82h.38c3.62,0,13.85-1.57,13.85-14.42C28.32.84,18.18,0,14.28,0m0,23C11.15,23,8,21.45,8,14.51c0-6.7,2.41-9.12,6.3-9.12s6,3.05,6,9.12c0,5.55-2.86,8.51-6,8.51"/><path class="cls-1" d="M142.16.92s7.66-.58,9,.14c1.76,1,6.53,11.13,6.53,11.13s3.82-8,4.78-9.59C164.49-.85,172,.76,172,.76s-2.17,2.45-2.94,3.5-6.61,10.6-7.14,12.52c-.75,2.71-.35,10.78-.35,10.78h-9a2.43,2.43,0,0,0,.6-1.21c.25-1.33.41-7.41-.59-10S143.19,1.28,142.16.92"/><path class="cls-1" d="M95.74,6.59s.21,19.9,0,20.47a1,1,0,0,1-.86.57h8.9s.48,0,0-.53.06-20.33.06-20.33,4.93,0,5.91-.42c2.59-1,3.3-5.93,3.3-5.93a3.62,3.62,0,0,1-2.14.57c-5.12-.05-16.81-.46-20.37.1A3.72,3.72,0,0,0,88,2.85a30.88,30.88,0,0,0-.25,4.81,3.54,3.54,0,0,1,2-1.08c1.65-.17,6,0,6,0"/></g></g></svg>