<svg xmlns="http://www.w3.org/2000/svg" viewBox="0 0 101.7 101.7"><defs><style>.cls-1{fill:#231815;}.cls-2{fill:#fff;}</style></defs><title>logo-cbcnet</title><g id="レイヤー_2" data-name="レイヤー 2"><g id="logo-cbcnet"><rect class="cls-1" width="101.7" height="101.7"/><path class="cls-2" d="M18.79,39.48H12.38V20.25h6.41Zm0-25.64H31.62v6.41H18.79Zm0,25.64H31.62V45.9H18.79Z"/><path class="cls-2" d="M63.67,39.48H57.26V45.9H38V13.84H57.26v6.41h6.41v6.41H57.26v6.41h6.41ZM44.44,26.66H57.26V20.25H44.44Zm12.82,6.41H44.44v6.41H57.26Z"/><path class="cls-2" d="M76.49,39.48H70.08V20.25h6.41Zm0-25.64H89.32v6.41H76.49Zm0,25.64H89.32V45.9H76.49Z"/><path class="cls-2" d="M18.79,87.58H12.38V55.52h6.41v6.42H25.2v6.41H18.79ZM25.2,74.76V68.35h6.41V55.52H38V87.58H31.61V74.76Z"/><polygon class="cls-2" points="44.44 87.58 44.44 55.53 63.67 55.53 63.67 61.94 50.85 61.94 50.85 68.35 63.67 68.35 63.67 74.76 50.85 74.76 50.85 81.17 63.67 81.17 63.67 87.58 44.44 87.58"/><polygon class="cls-2" points="76.49 61.94 70.08 61.94 70.08 55.53 89.32 55.53 89.32 61.94 82.9 61.94 82.9 87.58 76.49 87.58 76.49 61.94"/></g></g></svg>