<svg xmlns="http://www.w3.org/2000/svg" viewBox="0 0 372.33 28.83"><defs><style>.cls-1{fill:#231815;}</style></defs><title>logo-ototoy-bccks</title><g id="レイヤー_2" data-name="レイヤー 2"><g id="logo-ototoy-bccks"><path class="cls-1" d="M196.19,13.61h7.36a.29.29,0,0,1,.29.29v1a.29.29,0,0,1-.29.29h-7.36a.29.29,0,0,0-.29.29v7.29a.29.29,0,0,1-.29.29h-1a.29.29,0,0,1-.29-.29V15.48a.29.29,0,0,0-.29-.29h-7.3a.29.29,0,0,1-.28-.29v-1a.29.29,0,0,1,.28-.29H194a.29.29,0,0,0,.29-.29V6.05a.28.28,0,0,1,.29-.28h1a.28.28,0,0,1,.29.28v7.27a.29.29,0,0,0,.29.29"/><path class="cls-1" d="M128.12,0c-3.91,0-14.29.86-14.29,14.42s10.47,14.41,14.1,14.41h.37c3.63,0,13.86-1.57,13.86-14.43C142.16.84,132,0,128.12,0m0,23c-3.13,0-6.3-1.57-6.3-8.51,0-6.69,2.4-9.12,6.3-9.12s6,3.05,6,9.12c0,5.55-2.85,8.51-6,8.51"/><path class="cls-1" d="M71.2,0C67.29,0,56.92.86,56.92,14.42S67.39,28.83,71,28.83h.37c3.63,0,13.86-1.57,13.86-14.43C85.24.84,75.1,0,71.2,0m0,23c-3.13,0-6.3-1.57-6.3-8.51,0-6.69,2.41-9.12,6.3-9.12s6,3.05,6,9.12c0,5.55-2.85,8.51-6,8.51"/><path class="cls-1" d="M38.82,6.59s.21,19.9,0,20.47a1,1,0,0,1-.86.57h8.91s.47,0,0-.53.06-20.33.06-20.33,4.93,0,5.92-.42c2.58-1,3.29-5.92,3.29-5.92A3.71,3.71,0,0,1,54,1C48.89,1,37.2.53,33.64,1.1A3.7,3.7,0,0,0,31,2.85a31,31,0,0,0-.25,4.82,3.48,3.48,0,0,1,2-1.08c1.65-.17,6,0,6,0"/><path class="cls-1" d="M14.28,0C10.37,0,0,.86,0,14.42S10.47,28.83,14.09,28.83h.38c3.62,0,13.85-1.57,13.85-14.43C28.32.84,18.18,0,14.28,0m0,23C11.15,23,8,21.45,8,14.51c0-6.69,2.41-9.12,6.3-9.12s6,3.05,6,9.12c0,5.55-2.86,8.51-6,8.51"/><path class="cls-1" d="M142.16.92s7.66-.58,9,.15c1.76,1,6.53,11.13,6.53,11.13s3.82-8,4.78-9.6C164.49-.85,172,.76,172,.76s-2.17,2.45-2.94,3.51S162.48,14.86,162,16.79c-.75,2.71-.35,10.77-.35,10.77h-9a2.43,2.43,0,0,0,.6-1.21c.25-1.33.41-7.4-.59-10S143.19,1.28,142.16.92"/><path class="cls-1" d="M95.74,6.59s.21,19.9,0,20.47a1,1,0,0,1-.86.57h8.9s.48,0,0-.53.06-20.33.06-20.33,4.93,0,5.91-.42c2.59-1,3.3-5.92,3.3-5.92a3.71,3.71,0,0,1-2.14.57C105.81,1,94.12.53,90.56,1.1A3.68,3.68,0,0,0,88,2.85a31,31,0,0,0-.25,4.82,3.48,3.48,0,0,1,2-1.08c1.65-.17,6,0,6,0"/><path class="cls-1" d="M344,8.88C344,5.57,345.75,0,357.29,0c8.09,0,13,2.37,13.73,2.73,0,.21-1.07,3.48-1.31,4.14,0,0-3.91-2.3-12.17-2.3-3.34,0-8.94.55-8.94,4.21,0,3.22,3.83,3.7,5.48,3.75l7.78.2c3.89,0,10.47,1.65,10.47,7.82,0,5-5,8.28-12.78,8.28a38.17,38.17,0,0,1-14-2.31l2-4c.7.34,4.05,1.74,11.34,1.74,6.58,0,8.92-2,8.92-3.65,0-3-4-3.3-5.71-3.3l-7.25-.19c-5-.16-10.77-2.4-10.77-8.23"/><path class="cls-1" d="M320,.81V13.66s.34-.08.34-.15c2.55-1.71,15.72-12,17.11-13,.18.24,2.62,3.31,2.81,3.55L326.83,14.59l14.7,9.72c-.14.25-2,3.74-2.19,4l-16.83-11L320,19.07v9h-4.57V.81Z"/><path class="cls-1" d="M266.22,0a23,23,0,0,1,13.42,4.59c0,.21-1.69,3.89-1.77,4.35a17.84,17.84,0,0,0-11.7-4.36c-8,0-11.14,4.89-11.14,9.74s3.33,9.93,10.52,9.93A19.9,19.9,0,0,0,278,19.47c.13.42,1.62,4.08,1.69,4.29-.09.07-4.84,5.07-14.23,5.07-6.29,0-15.15-4.46-15.15-14.36,0-8.66,6.42-14.47,16-14.47"/><path class="cls-1" d="M298.48,0a21.36,21.36,0,0,1,12.16,3.73c0,.21-1.56,4-1.64,4.45a16.48,16.48,0,0,0-10.57-3.6c-8,0-11.15,4.89-11.15,9.74s3.33,9.93,10.53,9.93,10.76-3.82,10.93-4c.13.41,1.92,3.9,2,4.11-.09.07-3.89,4.43-13.07,4.43-6.29,0-15.15-4.46-15.15-14.36,0-8.66,6.42-14.47,16-14.47"/><path class="cls-1" d="M242.65,15.07l-.18-.13.23-.13a6.77,6.77,0,0,0,2.76-6c0-4-3-8-11.78-8H218.25V28h15.53c10.14,0,11.83-3.91,11.83-7.45a6.49,6.49,0,0,0-3-5.5m-10,8.38h-9.79v-6.3h12.46c4,0,5.71,1.43,5.71,3,0,3.81-5.56,3.29-8.38,3.29M240.89,9.1c0,2.48-1.82,3.47-5.27,3.47h-12.8V5.38h10.86c4.89,0,7.2,1.07,7.21,3.7Z"/></g></g></svg>