<svg xmlns="http://www.w3.org/2000/svg" viewBox="0 0 146.24 86.03"><defs><style>.cls-1{fill:#c8c9ca;}</style></defs><title>logo-tam</title><g id="レイヤー_2" data-name="レイヤー 2"><g id="logo-tam"><path d="M92.75,72.81s.08,0,.14,0-.06-.15-.18-.13,0,.16,0,.17"/><path d="M94.09,82.28,94,82.14c.19-.21.09-.58.14-.83-.24,0-.16-.12-.09-.23-.22-.07-.17.13-.32.14s0-.06-.05-.1.28-.15.23-.41c.26,0,.21-.15.19-.37,0,0,0-.06,0-.09s-.15-.1-.18-.14,0-.14,0-.14c0,.15-.15.19-.27.23s-.06-.1,0-.18a.88.88,0,0,0,.09-.56c.05-.09.14-.14.14-.28s-.11,0-.09-.09.08,0,.09-.09a1.51,1.51,0,0,0-.14-.6.16.16,0,0,1-.18.18c-.06-.22.12-.22.23-.27a.47.47,0,0,0-.14-.28.14.14,0,0,1-.09.14c-.18-.2-.15-.73-.19-.93.16,0,.17-.2.33-.23s-.06-.2-.1-.28c.19,0,.06-.25.1-.36-.14,0-.37,0-.37-.1s0-.21,0-.37c-.11,0-.18,0-.19-.09v-.28c-.12-.14-.15.19-.28,0,0-.24-.07-.43.23-.46a.46.46,0,0,0,.14.33,6.84,6.84,0,0,0-.05-.79c.11,0,.15,0,.15-.13a1.14,1.14,0,0,1-.15-.23c.06-.32-.16-.35-.23-.56s.18-.14.29-.18a1.43,1.43,0,0,1-.24-.19c0-.07,0-.16-.09-.13-.08-.14-.09.17-.23.13-.11-.21-.29-.33-.37-.51s-.12-.31-.18-.41.07-.07.13-.09c-.06.23.27.07.19.32.14,0,.11.08.18.09,0-.18.13-.23.09-.37s-.11,0-.09-.14h.19a4.25,4.25,0,0,0-.14-.51c-.18,0-.11.17-.32.1a.33.33,0,0,0,0-.19c.18-.09.17-.52.09-.73h-.37c0-.15-.07-.24,0-.42.22.07,0-.27.23-.23,0-.29-.29-.4-.09-.64-.39-.13-.07-.69-.1-1-.09,0-.2-.08-.23-.19s0-.17,0-.28c0-.31.06-.39-.09-.55s-.12,0-.19-.09.06-.22.14-.28c-.1-.19-.13-.42-.23-.6a.13.13,0,0,0,.09-.14,1.57,1.57,0,0,1-.05-.83c-.23,0-.22-.29-.32-.46-.11,0-.2.1-.23,0s-.07-.46-.14-.73c.05-.08.14-.12.14-.23s-.09-.1-.14-.14c.12-.15-.17-.28-.09-.55-.08-.07-.18-.1-.19-.24a1.26,1.26,0,0,0,0-.64c0-.06-.07-.12-.09-.19a1.77,1.77,0,0,0,0-.23,1.77,1.77,0,0,1-.09-.46c0-.08.13-.08.09-.18s0-.26,0-.42a3,3,0,0,1-.09-.32c0-.09.05-.11,0-.19s-.23-.3-.09-.46c-.21-.08-.22-.19-.42-.18,0-.09.06-.28-.09-.23s.14.31-.1.32a1.91,1.91,0,0,0-.13-.51c.15,0,.32-.16.18-.32.17,0,.23-.17.47-.14,0-.12-.06-.14-.1-.18s-.12-.15-.19-.14h-.08c-.1,0-.08.2-.23.18-.11-.25.08-.49,0-.83-.07-.1-.15,0-.19,0s0-.09,0-.09S89,58,89,57.81s.06,0,.18,0c0-.21-.11-.22-.09-.42-.19,0-.22-.12-.23-.27.12,0,.21.07.28,0-.12,0-.25,0-.32-.09,0-.23-.12-.32-.1-.55a3.29,3.29,0,0,0,.23-.33c-.14,0-.16-.12-.18-.23a.88.88,0,0,0,0-.82c.07-.07,0-.23.1-.29-.1-.06-.11-.2-.14-.32-.29,0-.29-.38-.37-.65,0-.12.09-.09.09-.18s-.09-.25-.23-.28,0,.13,0,.14S88,53.4,88,53.28s.13-.11.09-.27-.11.05-.19.05,0-.1-.09-.05,0,.14,0,.14V53c-.06-.11-.1.06-.13,0s-.1-.23,0-.38c-.07,0-.17,0-.18,0s0-.16,0-.23.12,0,.14-.05,0-.19.09-.19c.07-.29-.13-.43-.14-.59s.06-.1,0-.18.07-.08.09-.14-.15,0-.14-.14c-.19,0-.18.2-.37.18,0-.21.08-.26.14-.37s-.17,0-.14-.14.27-.11.33.09c0,0-.17.18,0,.14s0-.25,0-.41c-.12,0-.15-.07-.19-.14.13,0,.08-.19.09-.32s-.2-.14-.23-.28c0-.4-.23-.58-.36-.83,0,.11-.21,0-.19,0a.39.39,0,0,0,0-.46h.13a.94.94,0,0,0-.18-.36c.09-.09,0-.27,0-.37s-.22,0-.23-.1a.66.66,0,0,1,0-.46.44.44,0,0,1-.19-.28c-.15,0-.09.18-.23.19s0,0-.14,0c-.25-.14-.27-1,.14-.84.13-.23-.1-.35-.18-.5s0-.27,0-.42-.22,0-.22-.09.06-.18.08-.28-.1-.29-.14-.46h.14c0-.18-.11-.16-.14-.28s-.18-.34-.22-.55.21,0,.28-.1-.07-.12,0-.23.16,0,.13-.09c-.27.08,0-.2-.13-.27,0,.08,0,0-.09,0,0,.2,0,.26-.14.37-.17-.06-.18-.28-.23-.46s-.27-.14-.33-.27a3.28,3.28,0,0,1,0-.61s-.08-.09-.09-.13,0-.13,0-.19-.21-.28-.28-.42-.14-.2-.19-.32a.61.61,0,0,1,0-.27,1.08,1.08,0,0,1-.41-.65,1.6,1.6,0,0,0,.09-.51c-.07,0-.17,0-.19,0s0-.31.1-.41a.53.53,0,0,1-.38-.23c0-.17.07-.23,0-.38s.24-.08.1-.13a.14.14,0,0,1-.14.09c0-.16-.14-.12-.23-.23s0-.18-.1-.23-.12,0-.18-.09.06-.17,0-.19-.18,0-.18-.09.09-.11.09-.24-.17,0-.14-.08,0-.17,0-.37.14,0,.09-.18-.19.11-.33,0,.08-.15.1-.24c-.26,0-.27-.16-.33-.32.1,0,.18.19.28.09a2.56,2.56,0,0,0-.32-.64c.12-.06.14,0,.09-.19-.32-.13-.26-.49-.23-.78a6.55,6.55,0,0,1-.74-1.16c.12.11.13-.07.14-.09s.19-.25.19-.37c-.24,0-.43-.13-.47-.37,0,.12-.12,0-.09-.14s-.17,0-.18-.09.09-.09.09-.18c-.24,0-.05-.14-.05-.28-.16,0-.17-.23-.41-.18,0-.09-.13-.12-.09-.28-.12-.1-.31-.13-.33-.32a.13.13,0,0,1,.14-.1c0-.08-.14-.2,0-.18,0-.14-.13-.09-.09-.23s-.22,0-.29-.14c.15-.07,0-.2,0-.32s.23.11.23,0-.08-.23-.18-.28,0,.17,0,.19-.17-.07-.18-.19c.18-.14,0-.2-.05-.37.15,0,.09-.23.1-.37-.42-.11-.21-.66-.37-1H79c-.21-.26,0-.67-.27-.84,0-.17-.1-.24,0-.37s.15,0,.09-.09-.12-.2,0-.41a.56.56,0,0,1-.19-.6c-.05-.07-.13-.11-.13-.24a2.21,2.21,0,0,0-.14-.69c-.06-.2-.16-.33-.14-.18s-.19.12-.18.27c.15,0,.14.07.13.19,0-.06-.13,0-.19-.09s0-.11,0-.14-.07,0-.09,0,0-.23,0-.32-.25-.09-.19-.23-.11-.37,0-.65c-.2.08-.15-.17-.1-.23s-.19-.08-.23-.18,0-.2-.09-.28-.19.08-.23-.09c.12-.25-.08-.43-.09-.69,0-.1-.2-.08-.19-.23s.22-.35.1-.28c-.15.26-.39-.38-.38-.6s-.13.08-.18-.05-.06-.12,0-.23h-.22a.83.83,0,0,1-.05-.37s-.07,0-.09,0a1.25,1.25,0,0,1-.19-.6c-.26,0-.15-.25-.09-.37-.15-.08,0-.32-.09-.46s-.23-.18-.28-.33a1,1,0,0,0,0-.41c-.15,0-.2-.09-.38-.05-.07-.28-.18-.52-.27-.79-.07,0-.24.06-.23,0,.09-.29-.25-.41-.23-.23a2.29,2.29,0,0,1-.38-1c0-.07.06-.18,0-.23a.17.17,0,0,1-.18.19c-.17-.12.13-.26,0-.33a0,0,0,0,1-.09,0c.12-.16-.13-.25-.19-.37.09-.09,0-.08,0-.23s-.2,0-.23-.13c.16,0,.05-.17,0-.23s-.14.1-.28.09-.17-.2-.18-.37-.17,0-.14-.14.2-.08.28,0c-.06-.3-.46-.24-.6-.46a.46.46,0,0,0,0-.46c.06,0,.09.07.19,0,.06-.3-.11-.37-.14-.56s-.36,0-.46-.1.29,0,.28-.09,0-.35-.23-.41c.09,0,.1-.14.18-.19a3.3,3.3,0,0,1-.18-.32c-.18-.05-.14.12-.28.1s-.35-.15-.41-.33a.37.37,0,0,0,0-.23c-.25-.08-.19-.35-.42-.42,0,0,0,.09,0,.09s-.08-.06-.1-.09.13-.08.1-.23-.11-.08-.1-.18h-.18c0-.06-.06-.13-.14-.19s-.26,0-.33-.09,0-.11-.08-.14-.09.1-.14,0-.26-.1-.23,0,.11,0,.09.09c-.06-.11-.18.1-.23,0s.06-.1.09-.14c-.13-.06-.36,0-.37-.19-.14.07-.21,0-.32,0-.11.09,0,.15,0,.23-.08-.08-.14.07-.23.14s-.14,0-.18.09a.88.88,0,0,1,0,.37c0,.15,0,.31,0,.41s-.08,0-.1.14.07.34.05.56-.21.19-.28.32.23.14.28.27c-.16,0,.16.3-.09.28,0,.16.15.33.14.46s-.13.08-.1.19a.42.42,0,0,1-.18.55c0,.08.15.09.18.18s.17.35.05.6c.12,0,.09.1.14.15-.22.17-.12.54,0,.69h-.23a.59.59,0,0,0,0,.32s-.07.07,0,.14.29.22.37.41,0,.2,0,.33.27-.15.32-.05-.09.25-.28.23c0,.16.07.18,0,.32-.23,0-.09.35-.14.37s-.07-.06-.14,0c0,.29.13.28,0,.5.1,0,.11.17.18.24s-.08.14,0,.23a1.34,1.34,0,0,0,.51,0,4.16,4.16,0,0,1,.14.56c-.27-.14-.16.36-.42.37.07,0,0,.1.09.13l-.23.19c.25.16-.14.45.1.64s.14-.15.32,0c0-.11-.1-.2,0-.24s.08.05.1.09,0,.23,0,.33c-.22,0-.32.09-.33.28s.2,0,.23.05,0,.2-.23.13c0,.22.06.28.1.42.17,0,.2.07.27.13,0,.24-.18.3,0,.52.11,0,.1-.09.23-.05s0,.21.05.28,0,.08,0,.09,0,.26,0,.32-.23-.27-.24-.51c-.3,0,0,.28,0,.42a3.37,3.37,0,0,0,.09.37.3.3,0,0,0-.13.09c.19.08-.05.41.23.46-.06-.1.08-.12.09-.13s0-.19,0-.19.23.38.13.5-.12-.08-.18-.08,0,.13,0,.13-.08-.05-.09-.05-.1,0-.14.05.06.13.09.23,0,.34,0,.46.14.17.13.28a.66.66,0,0,0,.1.79c-.14,0-.11.3,0,.37s0-.15.19-.1c0,.05,0,.06,0,.1-.21.24.18.51.18.83.14,0,.13-.07.24-.05,0,.19.16.21.14.32s-.15,0-.09.1.12.09.18.13c0-.15-.11-.29.09-.32a.77.77,0,0,1,0,.37.29.29,0,0,1,.23.23c.06.24-.12.49-.18.65.15-.05.07.14.09.23a.21.21,0,0,0-.32.28c.19,0,.26-.16.37,0-.11,0-.08.23-.23.23,0,.13.09.2.09.32a.53.53,0,0,1,0,.14s.09.07.09.1,0,.13,0,.18.08,0,.1.14,0,.19,0,.28c.17.24.11.6.51.69,0,.08-.16,0-.19.09s.08.17,0,.32c.17.05.2.23.32.33,0-.12,0-.2.14-.19a1.15,1.15,0,0,1,0,.47c.17,0,.1.19.14.27s.25.21.19.37a.34.34,0,0,1-.28,0c0-.09,0-.42-.09-.32a2.07,2.07,0,0,0,0,.74s0,0,0,0-.06.12,0,.14a.23.23,0,0,1,.19-.1s0,.06,0,.1c0,.23-.27.1-.27.27s.17,0,.09.28c.11,0,.17,0,.18.09a2.14,2.14,0,0,0,0,.88c0,.11-.06.21,0,.32s.23.37.15.65a.38.38,0,0,1,.13.09c0,.11-.16.08-.13.23s.17.07.23.14v.19c.32.08.3.6.6.69,0,0,.09-.09.09,0-.29.29.06.78-.14,1.06.1,0,.21.12.09.13s-.12-.24-.18-.09.1.15.09.28.22,0,.28.23c-.06,0-.11,0-.1.09.33,0,.13.88.33.56v.32s-.18-.11-.19,0c.2.19.16.61.33.83.09,0,.15-.14.18,0s-.15,0-.09.19.2.26.32.37c0-.18.23,0,.28,0s0,0,0,.09-.11.13-.08.28a.28.28,0,0,0,.22,0c.13.2-.08.29,0,.46s.15-.13.19,0-.18.27-.23.46c0,0,0,.16,0,.23s-.1-.07-.1,0c.2.11,0,.35.19.42-.13.28.31.28.37.5h-.18a.32.32,0,0,1,0,.24c.15,0,.15.07.18.14s0,.29,0,.5c.19.1.18.39.32.51-.18.12.06.16,0,.37.17,0,.17-.11.24-.18a.67.67,0,0,1,.14.09c0,.15-.1.15-.14.23h-.18c-.06.23.13.23.13.42s0,.67-.1.92c.14.13.12.24.2.32a1.2,1.2,0,0,1,.27.42h-.09c.11.21.08.57.32.65.09.19.24.38.14.64.11,0,.09.16.23.14s-.07-.18,0-.32c.15.14.32-.22.41,0-.06.16-.13.08-.23.13a.43.43,0,0,0,0,.29c-.07,0-.2,0-.18.18s.28,0,.28.13,0,.11-.14.1c-.06.31.19.31.1.55a.42.42,0,0,1,.18.19c0,.21.13.34.18.55a.11.11,0,0,0,0,.09s0,.21,0,.28a9.34,9.34,0,0,0,.42,1.11c.06,0,.17,0,.23.09,0,.2.1.24.18.33-.2.1,0,.27,0,.46S77.12,53,77,53s.15.19.18.27,0,.07,0,.09.22.08.2.19-.18,0-.2.1,0,.19,0,.27.2.07.24.19.3.21.32.46c.08,0,.27,0,.32.09a1,1,0,0,0-.14.37c.12.09,0,.2,0,.28s.09.13.09.22-.11,0-.09.1.29.26.14.51c.05.07.17.07.23.13-.18.38.15.62.28.84H78.5c0,.2.08.22.09.37a.74.74,0,0,0-.09.51,2.42,2.42,0,0,1,.42.37s0,.1,0,.13.08,0,.09.05,0,.25,0,.37.07.08.1.14,0,.19,0,.28.18,0,.19.13a.88.88,0,0,0,.18.33s-.13,0-.14,0a3.12,3.12,0,0,1,.42.18c-.19,0,0,.16,0,.24s-.06.2,0,.27.27.13.32.33a2.45,2.45,0,0,0,.24.83.22.22,0,0,0-.14,0v.32c.14,0,.14.25.19.41s.13,0,.13.05,0,.15.1.18,0,.3.13.42.32,0,.32.09-.2,0-.13.18.11-.07.18-.09.1,0,.14,0c-.11.2.1.41,0,.7-.08,0,0,.11-.14.09,0,.31-.07.46,0,.69s.08-.07.22,0a.25.25,0,0,1,0,.22c.2.09.33.24.5.33,0,0,0,0,0,.09s0,.17,0,.28,0,.27.19.37c-.17.14.11.22.1.37s-.17.09-.14.23.09.22.18.28c-.13,0-.08.19-.09.32.15,0,.14.19.23.28a.31.31,0,0,0,.23,0,.77.77,0,0,1,.09.28c-.21.06-.19.37-.09.5s-.1.12-.09.24c.16.14,0,.34.18.45,0,0,0-.08,0-.08a1.46,1.46,0,0,1,.27.41s-.13,0-.13,0c.17.16.21.52.55.37,0,.39.1.62.09,1a1.09,1.09,0,0,1,.32.23c-.12,0-.11-.06-.22,0,0,.24.18.22.22.38-.12.26.15.4.28.55.05-.1.06-.22.19-.23.12.17-.09.32-.19.41.07.14.25.16.23.37h-.18c-.05.23.34.28.09.42.09.21.43.2.51.42-.14,0-.17,0-.28,0a2,2,0,0,1,.19.88.85.85,0,0,0,.37,0c0,.11-.09.1,0,.23.27,0,.21.37.33.56-.06,0-.12,0-.1.09s.12-.06.14,0,.17.31.32.41c0,.08-.15,0-.18.09.09.25.32.35.46.55a.68.68,0,0,0,.23.46c0,.14,0,.23.1.28s0,0,.09,0a.37.37,0,0,0,.23.28c.06.13,0,.28,0,.41s.09.09.09.14-.08,0,0,.09.15.12.23.19-.06.07,0,.14a.23.23,0,0,1,.32.18.34.34,0,0,1-.19,0c0,.21.2.27.28.41a1.35,1.35,0,0,1,.14.37c0,.09-.13.06-.09.18a.47.47,0,0,1,.09.51c.14,0,.14.23.32.23s.15,0,.18-.09-.19,0-.27-.09.13-.18.19-.28c-.12-.59.22-.42.37,0,.07.26,0,.33,0,.52a.14.14,0,0,1,0,.09,2.17,2.17,0,0,1-.15.41c.13.11.12.05.28.09,0,.15.12.1.19.14s.13.28.27.38c0,.15,0,.37,0,.45.13,0,.12.13.18.19s-.06.08,0,.18a1.29,1.29,0,0,1,.28.33c.17,0,.37,0,.42.18-.14.27.12.43.08.73.23.1.58.23.46.52.11.1.28.12.38.23s-.17.08-.14.23.23.17.14.32c.11.1.29.14.36.28s0,.24,0,.23.13,0,.09.09c.19,0,.19,0,.33,0,0,.09-.14.09,0,.18.25,0,.3.16.46.23s.4,0,.47.15c.14,0,.13-.15.32-.1s.07.21.23.18,0-.19.09-.23c.11.21.16,0,.33,0a.1.1,0,0,0,.09.13c.08-.12.12,0,.28,0s.06-.3.31-.23c0-.22,0-.21.19-.28,0-.22-.13-.23-.09-.46.21-.21.16-.27.18-.6-.06,0-.23.06-.23,0s.1-.11.1-.23c.14.06.11-.07.18-.09A3,3,0,0,0,94,82.57c0-.15.08-.16.07-.29M68.61,16.78v-.19a.1.1,0,1,1,0,.19m.65,4a.21.21,0,0,0,0,.18A.18.18,0,0,1,69,20.7c.13,0,.12.07.23.05m-.46-1.39c-.09-.08,0-.18.13-.18s0,.2-.13.18m.23,2.4c-.06-.24.23-.13.23-.32a.48.48,0,0,1,.18.41c-.13,0-.2-.14-.41-.09m1,4.52c-.13,0,0-.19,0-.27.28,0,.15.25,0,.27m2.08,9.65a.29.29,0,0,1,.22,0c0,.12-.3.16-.22,0m1.06,2.73c.14,0,.15.18.14.36-.11-.06-.24-.25-.14-.36m.09,1.06c-.08,0-.1.06-.19,0a.85.85,0,0,0,0-.5.22.22,0,0,1,.32,0c0,.19-.14.23-.09.46m.14.74c0-.15.07-.15.09-.24a.19.19,0,0,1,.18.24Zm1.15-21.24c0-.12.06-.15.19-.13s-.07.15-.19.13m2.59,4.25c.15,0,.2.13.23.27a.34.34,0,0,1-.23-.27m.87,3.6v-.18h.14c0,.12,0,.2-.14.18m.19-1.38c-.14,0-.12-.28,0-.24a.3.3,0,0,1,0,.24m.14.82a.27.27,0,0,1,.18.33c-.27,0-.21-.15-.18-.33m.14-.31c.15,0,.18.29.09.36s-.06-.25-.09-.36m.27,2.4c-.18,0-.18-.23,0-.19Zm3.37,8.3c.06-.12.3,0,.23.14s-.12-.13-.23-.14m.32,29.78c-.1,0,0-.13-.13-.14.07-.14.28,0,.13.14M84.22,42c-.07-.07-.1-.18-.19-.23.18-.06.1-.11.09-.33h.14c0,.22.09.42,0,.56m2.17,6.93c.07,0,.07,0,.13,0s-.08.1,0,.23c-.17,0-.16-.2-.08-.27m0,27.74c.12,0,.2,0,.19.14s-.2,0-.19-.14m.32.73c0-.11,0-.22,0-.27s.13.2.14.37c-.15.06,0-.15-.19-.1M88.09,54c.09-.1,0,.2,0,.27a.17.17,0,0,1-.19-.18c.08,0,.13,0,.14-.09m-.14.46c.49-.07.12.49,0,0M91,66c-.21,0-.27-.24-.18-.38H91c0,.11.14.27,0,.38m1.49,8.91h.09c0-.09-.14,0-.14-.14s.13-.21.28-.14c-.12.19.16.4-.05.55a.31.31,0,0,1-.18-.27m.41,2.3a.35.35,0,0,1,0-.37c0,.1.17.13.19.28-.1,0-.06.12-.19.09M93.77,82c-.14-.08-.06-.26.14-.24,0,.18-.1.15-.14.24"/><path d="M8.39,28.24c0,.07-.05.08-.05.14s.14-.16.05-.14"/><path d="M13.61,51.54s.05,0,0,0"/><path d="M13.3,50.84c-.13,0-.09-.09-.18-.09a.29.29,0,0,0,0,.22c.16.05.2,0,.23-.13"/><path d="M13.42,56.15c0,.17-.1.28.05.37.07-.13.12-.29-.05-.37"/><path d="M34.83,30.54c-.08-.22,0-.54-.19-.69.1,0,0-.2,0-.27a.62.62,0,0,1-.29-.47c-.11,0-.22,0-.23-.1a.92.92,0,0,0-.15-.42c-.22-.08-.36.05-.55.13a.31.31,0,0,1-.14-.09c0-.15,0-.22,0-.33s-.17,0-.15-.09c-.13,0-.12.07-.23.05s-.21-.12-.27-.05c-.22-.25-.63,0-.74,0s-.07-.19-.19-.19c0,.19-.4.11-.46.13s.05,0,.05.05a1.08,1.08,0,0,1-.32,0c-.13-.15-.21-.09-.33-.09a.31.31,0,0,0-.18-.06c-.1,0-.19.13-.28.14s-.08-.1-.13-.1-.29.1-.37.09,0-.06,0-.09c-.16.1-.44.07-.54.22a2.57,2.57,0,0,0-.29-.28c0,.13-.11,0-.23,0s0,.14-.09.14-.18,0-.23-.15c-.23,0-.29.05-.46-.05,0,.16-.1.08-.14,0s0,.14,0,.14c-.13-.17-.16,0-.28,0,0,.11,0,.22-.09.22s-.16,0-.24-.05c.09-.08,0-.23-.14-.27a.24.24,0,0,1-.09.13,2.06,2.06,0,0,0-.92,0c-.09,0-.09-.14-.19-.05s.13.29,0,.32-.21-.28-.29-.32a1.94,1.94,0,0,0-.83,0c-.09,0-.09-.14-.23-.1s0,.16-.14.14a7.66,7.66,0,0,0-1.06,0V28.1a.83.83,0,0,1-.37-.05c-.05.06,0,.17-.13.18-.14-.26-.38-.09-.65-.05,0,0-.1,0-.14,0s-.11.08-.18.08a4.46,4.46,0,0,1-1-.1c-.06,0,0,.17-.09.18a2.53,2.53,0,0,1-1-.2c-.17.25-.54,0-.75-.06s-.2.1-.36.08c0-.08-.16-.17-.15-.08a0,0,0,1,1,0,.08c-.14.06,0-.14-.18-.09,0,.11-.07.15-.13.19-.05-.15-.28-.11-.33-.24-.09.15.35.14.21.19s-.12.12-.18.13-.1-.05-.14-.05-.1.09-.14.09.5-.09.29,0a.48.48,0,0,1-.42.13,1,1,0,0,0-.41-.19c0,.13-.1.09-.15.13-.32,0-.59-.22-.78,0,.06,0,.13,0,.14.05-.2,0-.06.1-.14.18s-.16,0-.14.09c.22.05.13-.21.33-.18,0,.13-.08.26-.29.23,0,.17.2.08.24.19s-.1.14-.14.22-.18,0-.19-.09.17,0,.19-.09-.11.05-.19,0-.07-.11-.09-.18.07-.2.14-.28c-.12,0-.26-.09-.09-.18-.21,0-.12.11-.18.13s-.12-.07-.19-.09c0,.17.21.17.28.09,0,.13.07.32,0,.37,0-.12-.07-.15-.18-.14s0,.18-.19.14c.05-.2.05-.33-.13-.46,0,.09-.16,0-.23,0a.94.94,0,0,0-.32-.14.94.94,0,0,1-.74,0s0,.09-.05.09-.15-.16-.28-.18-.19.11-.27.17-.09-.13-.24-.1a.55.55,0,0,1-.46.09c-.08,0-.1.07-.18,0s0-.09-.14-.1-.18,0-.28,0-.46-.12-.69-.1c-.06,0-.06.05-.14,0s-.22-.08-.32-.09-.16,0-.23,0a.71.71,0,0,0-.38,0c-.17,0-.19-.1-.36-.14s-.07.05-.14.05-.17-.1-.19-.1-.13.1-.23.09-.07-.11-.18-.1-.05.09-.09.09a.72.72,0,0,0-.61,0c.1,0,.07.22,0,.14s.06-.06,0-.14a.23.23,0,0,0-.27.14c.05,0,.11,0,.09.09s-.14.05-.14.14-.05.13-.14.09.06-.55-.09-.47c.09.06-.11.1,0,.23-.12-.13-.2,0-.23.05s-.1,0-.14,0,.06.05,0,.05-.22,0-.28-.1c.09-.09,0-.12,0-.18s-.1.18-.23.18a.22.22,0,0,0,0-.14c-.33.1-.6-.18-1-.2,0,.1-.12.09-.23.09s.06.12,0,.14a.19.19,0,0,1-.23-.19c.11,0,.14.09.18,0-.12-.18-.17,0-.27,0s0,.09,0,.09a1.94,1.94,0,0,0-.55-.05c0,.05-.08.14-.14.17a1.19,1.19,0,0,0-.32,0s-.09.09-.15.09-.21-.05-.32-.05-.21.05-.32.06a.51.51,0,0,0-.32.07c0-.2-.17-.05-.29,0s-.3,0-.32,0-.22.13-.36,0,0,.17-.05.18c-.13-.14-.1,0-.19,0s-.21-.09-.23,0a.12.12,0,0,1,.09.14A1.27,1.27,0,0,0,1,28.9s-.11,0-.14,0c-.19.1-.05.22-.15.32s-.08-.06-.18,0c0,.18-.21.4-.28.45s-.12,0-.14.05,0,.23-.14.22a6.83,6.83,0,0,1,0,1c0,.06.17,0,.18.1a.12.12,0,0,0-.14.09A3.18,3.18,0,0,1,.49,32c.05.05.17,0,.14.14a.27.27,0,0,0,.23-.05c0,.15.1.22,0,.33a.41.41,0,0,1,.32.29c.19-.06.27.07.32.09s.13,0,.18,0S1.87,33,2,33c.3.08.66,0,1.06.07.08,0,.1-.16.19-.18.09.13.24.21.32.37a1.72,1.72,0,0,0,.6,0,.62.62,0,0,1,.14-.18c.24.07.2-.14.33-.18a3.62,3.62,0,0,1,.22.32,4.17,4.17,0,0,0,1-.17c0,.18.09.18.17.24a.41.41,0,0,1,.19-.18c0,.18.22.07.33.09s.1.08.18.1H6.9c0,.08.14.1.27.1-.07-.16.08-.23.1-.32a.34.34,0,0,1,0-.14s.14-.16,0-.19,0,0-.05,0,.06,0,.09,0,.18.22.33.28v-.09s.06,0,0,0-.13,0-.13-.05,0-.13.09-.13a.25.25,0,0,1,.13.09.28.28,0,0,0,0,.23c.17,0,0-.21.18-.27s.15.07.14.19-.17,0-.18.13,0,0,0,0-.06,0,0,0c.22,0,.25.19.42.24s.28-.06.45,0,0-.17.15-.14a1.31,1.31,0,0,0,.69.15s.12-.11.23-.14a2.45,2.45,0,0,0,.32-.08c.2,0,.41,0,.56-.13.06.12.1.26.27.28a.53.53,0,0,0,.38-.18c-.07.16.13.06.18.1s.08.21.18.23-.07.15-.09.23.11.07.23.05,0-.17.09-.18.23-.12.37,0c-.05.1-.21.09-.37.09,0,.24-.13.08-.19.23.17,0,.15-.1.23-.14.12.12,0,.21-.09.28s-.06-.13-.09,0,0,.11,0,.19.12.12.15.21-.1.45.23.23A.24.24,0,0,1,12,35c.15.14.28.65.53.51,0,.1-.23.24-.1.32-.14-.09.17-.14.16-.14a.82.82,0,0,1,.31.07c-.11.06.05.16,0,.18s-.27-.17-.28-.1.1.08.05.14c.18.05.13.2.09.32-.12-.16-.16,0-.28,0,0,.11-.1.1-.14.18s0-.06-.09,0a1,1,0,0,0-.1.36.13.13,0,0,1,.14.1c-.1.11.07.22.14.31-.08.1-.11.17,0,.23a1.73,1.73,0,0,0,.33-.13c.06.12-.22.11-.05.18,0-.06.1,0,.14-.09s-.14-.16,0-.18,0,.1.09,0-.2-.22-.09-.27.21.06.28.14c-.26.08-.16.52-.33.69-.13-.1-.1-.34-.33-.33-.09.16.1.39,0,.64.32,0,0-.25.33-.22,0,.09.06.09.09.14s0,.12-.14.09.12.18,0,.19-.09,0-.18,0,0-.24-.19-.24c0,.22.09.31,0,.42.12,0,.11.1.18.14s0,.25-.09.41.26.13.27.33a.29.29,0,0,1-.27,0c.07.19.14.33,0,.51.14,0,.1.15.14.23s-.08-.07-.1,0-.07.21.14.19c-.06-.15,0-.17.14-.19-.12.1-.09.23-.14.33s-.17-.12-.14,0,.06,0,.14,0c-.05.18,0,.28-.1.42s.13.05.14.13a8.07,8.07,0,0,0,0,1.11c0,.09,0,.1,0,.18,0,.24.15.35.22.56-.08,0-.09,0-.1.09a.81.81,0,0,0,.14.51c-.18.17,0,.3,0,.42s-.19.16-.1.27,0,.21.05.37.09.09.09.14-.1.05-.1.14.08.11.09.18-.11.33,0,.47.34.08.31.33a.68.68,0,0,0-.37.08c0,.22,0,.43,0,.65a.37.37,0,0,1,.18.28c-.11.1,0,.21,0,.27s-.1.14-.1.19a.91.91,0,0,0,.18.56c-.13,0-.07.3-.14.4.16,0,.13.24.27.29-.15,0-.07.15-.14.18a.21.21,0,0,1,.18.1c-.08.12,0,.17-.09.27.24,0,.05.2.18.33,0,0-.09,0-.09.05.15,0,.13-.14.23-.19.09.11-.15.13,0,.23-.14,0-.11.13-.28,0-.1.15.19.13.24.15s0,.11,0,.09,0-.16,0-.14-.11.2-.14.32c-.11-.06.09-.13,0-.19s0,.16-.09.19S13,49.9,13,50s.17,0,.19.14.09.18-.05.23,0-.11-.1-.09-.11,0-.09.13c.24-.12,0,.14.23.19,0-.08-.07-.12,0-.14a.53.53,0,0,1,.14.24c0,.05-.06.07,0,.14a1.16,1.16,0,0,1,.09.14s-.05.05-.05.09.14.25.19.32,0,.1,0,.14l0,0s0,0,0,0h0l-.1.09c-.08,0-.17,0-.18.13.17.07.16.21.18.32s.09-.08.19-.08c0,.17.08.24.22.28s.09-.13.23-.09.06.24.19.23c-.07.06-.06.19-.19.18,0-.09.14-.08.05-.18s-.11.1-.19.14.2.22.09.27,0-.12-.09-.13-.12.15-.19.22-.14-.07-.13-.18.27,0,.28-.09,0-.2-.14-.19-.07.22-.18.23,0-.13,0-.14v.14c-.08-.09-.13,0-.23,0s.06-.3-.05-.32-.12.05-.13,0c.18-.06-.08-.35.23-.33,0-.14-.15-.1-.23-.14-.06.12.13.2,0,.24,0-.12-.15-.16-.19-.28,0,.16.07.2.14.28-.2.13,0,.68-.2.83.16.21,0,.61.18.74-.1,0,0,.22-.05.32s.12.09.14.19-.16.16-.19.27.24.19.27.37a.72.72,0,0,0-.14.42c.06.12.31.06.41.14,0-.14-.11-.16-.13-.28s.17,0,.18,0c-.16-.06-.09-.07-.13-.23.09,0,.11.1.23.09,0-.2-.13.07-.1-.14.22,0,.32.29.28.38s-.14-.19-.18-.06a.84.84,0,0,0,.27.43c-.06,0,0,0,0,.09s-.17-.16-.18-.05c.14,0,.05.07.05.19a.25.25,0,0,0,.13,0c0,.13.08.13.05.27a.26.26,0,0,1-.14,0c0,.14.15.06.14.18s-.23,0-.28-.09c-.09.08,0,.17,0,.27s-.11,0-.09.1c.17,0,.06.24.08.37s.09,0,.09,0,0,.3-.1.32,0-.17-.13-.18-.17.13-.23.22,0,0,0,.05.06,0,.09,0,0-.18.1-.18.23.09.09.13-.05,0-.05,0-.4,0-.46.13.1.14.09.28,0,.08,0,.23c.26.07.29.4.22.74l-.09.09a1,1,0,0,0,0,.28c0,.06.08.07.09.14s-.09.08,0,.09.25.15.14.28c.05,0,.12,0,.13.05,0,.48,0,.77,0,1.1,0,.07.13.12.13.23-.19,0,0,.21,0,.23,0,.18-.06.21,0,.33,0,0,0-.06,0,0-.21.29,0,.46-.06.78.14.14.19.38.32.52-.09,0,0,.15-.09.18.21,0,0,.14,0,.18s.17.14.09.28-.12.06-.09.19,0,.3.09.51c0,0-.1,0-.1,0,.17,0,.36,0,.32.19-.24-.28-.52.31-.23.37,0,0-.17,0-.14.13.2.12.16-.19.28-.22,0,.39-.24.48-.11.87-.05,0-.1,0-.09.09s.11.18,0,.24,0,0,0,0,0,0-.05.09.05.19.05.23c0,.34-.05.94,0,1.35h-.09c0,.12.16.2,0,.28.2.11.19.53.08.69.19.13.07.31.18.46a.13.13,0,0,0-.14.1c.18,0,0,0,0,.14h.13c-.11.11.06.1.09.18s.09.29-.09.14c0,.16.19.06.13.23s-.12.06-.09.19c.19,0,.08.17.09.18s.13,0,.18.1.14.22.18.32,0,.28.1.37h-.24c0,.21,0,.21.09.23-.13,0,0,.15,0,.24s-.07-.07-.09,0,.15,0,.23,0,.1.12.09.23.16,0,.13.1c-.15-.14-.09.23-.14.23s-.05,0-.09,0-.05-.19-.18-.19a.45.45,0,0,0-.14.51c0,.06.07.08.08.14s-.06.06,0,.13.09.12.09.19,0,.11,0,.18c.22,0,.08.32.23.38,0,.11-.16.08-.14.23.19.08.23.32.22.6.07.12.17.17.09.32a.41.41,0,0,1,.23.29c-.17-.05-.07.18-.1.27s.17,0,.14.14-.18.13-.33.13,0-.1,0-.28-.21.06-.23.19.13.14.18.23,0,.08,0,.1.2.11.28.23a1.16,1.16,0,0,1,.13.42c-.12,0-.09.09-.14.13a2.44,2.44,0,0,0,.13.47c0,.06,0,.18-.18.13v-.23c-.11,0-.13-.08-.28,0,0,.23.08.33,0,.55s.18,0,.18.1c-.22.09.16.16,0,.42.42-.06.31.39.6.47-.06,0-.1,0-.09.09s.08.47-.28.46c0,.14-.06.14-.1.18s-.13.18-.23.18.12.1.14.18c-.15.16.1.27,0,.42a.48.48,0,0,1,.14.09c0,.3.08.48,0,.79a.09.09,0,0,1,.09.05s0,.2,0,.18-.1,0-.09,0,.1,0,.09.05-.13.3,0,.45c-.18.2.1.33,0,.65.18,0,.13.18.14.33s.11-.06.13,0c0,.31.17.61.09.79.2,0,.11.28.13.46s.21.26.33.38h-.14c0,.08.08.08.09.13s-.12.21,0,.28.06,0,0,0c.25,0,.43,0,.42.28a.6.6,0,0,0,.28.14c-.14.09.19.17,0,.25s-.17-.21-.27-.29c0,.25.18.36.37.38s.21-.15.28,0-.12.19-.14.32c.19,0,.21,0,.28.1.06-.16.07-.09.23-.13,0-.14-.11-.14-.09-.29.2.11.19.19.27.33-.06-.11-.34,0-.18.1,0-.13,0,.06,0,.08s.1,0,.13,0,0,.1.1.1a.85.85,0,0,1,.14-.09c0-.07-.18,0-.19-.1s0-.28.19-.37c-.1.14-.11.14,0,.19s0,.08,0,.09.1.12.14,0c0-.23.47-.25.42-.64.09.1.13-.06.27,0,0-.2.08-.22,0-.37.15-.05.08-.48.28-.32,0-.25.27-.45,0-.65a1.75,1.75,0,0,0,0-.88c.08,0,.09,0,0-.08a.33.33,0,0,0,.19,0c-.09-.12.07-.21.09-.32a.2.2,0,0,1-.06-.14,1.51,1.51,0,0,0,0-.79c.08-.06,0-.26.18-.27-.08-.17,0-.38,0-.6s-.16-.09-.2-.19.25-.4.14-.64c.06,0,.17,0,.18,0a.91.91,0,0,1-.1-.56c-.06-.11-.24-.11-.24-.28a.3.3,0,0,1,.23,0,3.83,3.83,0,0,0,0-.74h.14c0-.19-.14-.21-.15-.37s.34-.25.28-.6c-.16-.09-.16-.33-.15-.6.17,0,.11-.06.09-.18.09,0,.2-.12.08-.14-.21.14-.07-.35-.14-.41h.14c0-.18-.08-.21-.05-.38a1.13,1.13,0,0,0,.16-1.15.45.45,0,0,1,.1-.14c0-.14-.13-.11-.15-.22s.12.12.28.09c0-.13.06-.12,0-.23a.23.23,0,0,1-.23-.24c0-.09.12-.08.18-.13a.71.71,0,0,1,.13-.69c-.12-.25,0-.37,0-.56s-.06,0-.05-.13.08-.1.09-.14a.11.11,0,0,1,0-.09c0-.21.16-.4,0-.56.23-.34,0-.88.22-1.23,0-.08-.15-.08-.15-.19H21c.07-.11-.09-.14-.1-.23s.07-.09.05-.19-.13-.16-.14-.28.06-.16.08-.23a1.11,1.11,0,0,0,0-.6c.25,0,0-.19.18-.23a.8.8,0,0,1,.17-.82c0-.3.14-.46,0-.61a.29.29,0,0,1-.31.14c0-.2.08-.25,0-.42s.17,0,.18-.09-.06-.37-.14-.51c.08-.1,0-.32.18-.37,0-.15,0-.23,0-.36s-.09-.11-.15-.19a.29.29,0,0,1,.09-.41c0,.1.17,0,.23,0a1.17,1.17,0,0,0-.24-1c0-.11,0-.21,0-.32a.37.37,0,0,0,.18-.27c0-.14-.1-.15-.09-.29.19,0,.08-.35.09-.41s.08-.14.08-.18,0-.08,0-.1.05-.06,0-.14-.08-.41,0-.54-.08-.14,0-.28.32,0,.32-.09a.53.53,0,0,1-.23-.33s.17,0,.17-.13-.13-.12-.14-.24c.33-.09-.15-.71.36-.63a3.78,3.78,0,0,0,0-.7c-.11,0-.17,0-.19-.1s0-.24-.05-.41a.34.34,0,0,0,.14-.09.23.23,0,0,0-.19,0,.29.29,0,0,0,0-.14c0-.09,0-.15,0-.23s-.15-.38-.1-.42c.05.14,0-.14.14,0,0-.19.09-.44-.06-.55,0,.25-.12.28-.13.46-.06-.13-.1-.27-.23-.33s0-.27.08-.32.21.14.38.06c.09.13.09.36.37.32,0-.21-.18-.57,0-.69,0-.09,0-.11,0-.19s.25.1.28-.09-.32,0-.37-.23-.16-.62,0-1c0-.12-.15-.13-.15-.28s.09-.45.32-.5c0,0,.08.11.1,0-.14,0-.09-.15,0-.19s.14.09.18,0c-.12-.05-.13-.33,0-.33a.8.8,0,0,0-.14-.45s-.1.08-.09,0,.12-.1.08-.24c-.2-.36-.19-1,.26-1,.06-.25-.14-.24-.1-.47-.11,0-.16-.08-.23-.14s.13-.08.09-.23c-.2-.23.13-.45,0-.79h.14c-.1-.19.06-.34.17-.46a1.46,1.46,0,0,1-.19-.83c.06,0,.17,0,.18,0s-.05-.18-.1-.28-.08,0-.09-.15a1.05,1.05,0,0,1,.12-.54v-.56c.06,0,.06,0,.14,0,0-.2-.08-.26-.06-.46-.12,0-.27,0-.27-.14s.05-.08,0-.09-.12-.05-.14-.1,0-.28-.05-.41c.09-.09.13-.11.28-.05,0-.14.14-.22.22-.32s-.15-.07-.14-.19c.19,0,0-.28,0-.36s.15-.08,0-.19c.15,0,.07-.15.19-.13-.06-.6.05-1.57-.09-2.31-.14,0-.14-.08-.23-.1,0,.24.12.43,0,.51a2.62,2.62,0,0,1,0-.28c-.11,0-.18,0-.19-.1s.05-.35,0-.59c.23,0,.2.14.42.09.07-.21-.09-.77.41-.68-.09-.16.08-.23.08-.33s-.08-.11-.09-.23.06-.11,0-.23a.19.19,0,0,1-.23-.19c0-.19.13-.22.18-.36s-.13,0-.14,0,0-.14.18-.09c-.06-.27.11-.31.13-.5s-.11-.3-.14-.47c.18,0,0-.11,0-.13s.09,0,.14-.14c0,0-.05,0-.05-.05s.09-.07,0-.09-.08,0-.09-.05c0-.35-.25-.37-.25-.69a.13.13,0,0,1,.14-.1,1.2,1.2,0,0,1,.12-1.1c0,.06.06.09.15.09.25-.2,0-.4,0-.78-.06,0-.09,0-.14,0s.07,0,0,0-.2-.07-.18-.19.11.12.28.09,0-.49.22-.59c0-.14-.11-.15-.1-.28a1.69,1.69,0,0,0,0-1c.08,0,.1.05.18.05,0-.29-.3,0-.32-.1.17-.13-.05-.2,0-.46a1,1,0,0,0,.65-.08c0-.06,0-.12,0-.18s.2-.1.37-.09.13.2.23.09v.09c.06,0,.13,0,.14.06s.12-.07.23,0a.15.15,0,0,0,.15.1c.09-.13.19,0,.27-.13.12.13.52-.07.74,0a.25.25,0,0,1,.09-.19.64.64,0,0,1,.41.2c0-.17.06,0,.05,0s.33-.09.47,0a.57.57,0,0,1,.13-.14c.21.17.35,0,.69.1,0-.12.1-.12.19-.13a.25.25,0,0,1,.23.14,1.5,1.5,0,0,1,.69,0c.21,0,.42,0,.64,0s.24.08.37,0a3.53,3.53,0,0,1,.46,0,7.91,7.91,0,0,1,.84,0c0-.15-.13-.09-.1-.23.09,0,.09-.07.14-.09s.21.23.42.28c0-.11.1-.15.14-.24-.06.1.07.23.09.1s0-.2.13-.27c0,0-.09,0-.09,0s.29.08.28.28c-.1,0-.26-.16-.28,0,.21,0,.21,0,.23.09.17,0,.16-.23.32-.27,0,.06-.07.09,0,.19.15-.06.62.09.83,0-.08,0,0-.17,0-.18s.33.13.19,0-.12,0-.1-.15.17-.06.23-.13c0,.13.1.09.14.15-.1-.24.05-.26.23-.33,0,.06,0,.14,0,.14a.42.42,0,0,1,.23-.18c0-.3.17-.44.27-.64.09.08.06,0,.19,0,0-.29-.12-.48.08-.6-.05-.14,0-.34-.15-.42.1,0,.15,0,.14-.13m-27-1.71c-.09,0-.2,0-.18-.14s.22,0,.18.14m4.57,8.43c0-.18.22,0,.18-.24.2,0-.05.27-.18.24m.8,10.17c-.17-.11,0-.3.19-.28,0,.17-.15.16-.19.28m.25,2.63s-.13-.08-.14,0,.13-.08,0-.23c.15,0,.07.14.09.23m-.32,3.87a.24.24,0,0,0,0-.18h.15a.38.38,0,0,1,0,.23.3.3,0,0,1-.23,0m1.13,2.15c-.13,0-.09-.1-.19-.1.1,0,.09-.2.24-.18s0,.18-.05.28m1.37-26.9c-.16,0-.17-.08-.18-.18h.18Zm-.37,48.28c.09-.08.08,0,.23,0a.12.12,0,1,1-.23,0m.36.33c-.23-.2.1-.33,0-.51.16,0,.07.21.13.28s-.09.16-.14.23m4.82-6c-.06,0-.13,0-.13,0s0-.21.13-.18v.14m.18-.69a.26.26,0,0,1-.1-.37c.14,0,.19.26.1.37m1.83-29.28c-.19-.06,0-.24-.19-.29,0-.1.16,0,.23,0-.12.1,0,.26,0,.33m.12-1.16a.24.24,0,0,1,0,.28c-.24,0-.21-.2-.33-.28,0-.11.15-.13.19-.23.06.11.23.15.13,0,.1,0,.1.14.18.18s-.07.11-.17.09"/><path d="M15.63,29.18V29h-.18c0,.1,0,.21.18.18"/><path d="M13.34,55.6c.2.07,0,.29.08.32,0-.12.18-.11.24-.18-.11,0,.05-.12.05-.18-.19,0-.34,0-.37,0"/><path d="M13.66,55.83c0,.08-.06,0-.13,0s-.07.36,0,.28-.06,0-.05,0h.18c0-.12.07-.17,0-.24"/><path d="M134.1,37.46a.17.17,0,0,0,.22-.13c-.13,0-.24,0-.22.13"/><path d="M145.82,42.92c.09,0,.09.15.18.06s-.17-.19-.18-.06"/><path d="M146,46.26c0-.11,0-.21-.17-.19s.11.14.17.19"/><path d="M108,46.21c0-.14,0-.08,0-.23-.2,0-.16.25,0,.23"/><path d="M138.25,67.13c-.05.16-.18,0-.23.08.11,0,.09.17.23.15-.06-.12.14-.19,0-.23"/><path d="M146.08,50.89a.93.93,0,0,1-.14-.14s0-.1,0-.13-.08,0-.09,0,0-.18,0-.28-.08-.1-.09-.19.08-.09.09-.18-.15-.09-.13-.24.2,0,.28-.08c-.15,0-.13-.12-.18-.19.1-.1.11-.28.22-.37-.1,0-.16,0-.17-.09a.13.13,0,0,0,.13-.09c-.13,0-.17-.17-.23-.29.09,0,.11,0,.19,0s-.12-.16-.19-.09c0-.11,0-.25-.13-.28s-.08,0-.14,0-.05-.24.05-.24.08.27.27.24c0-.2-.07-.26,0-.46H146c0-.13-.11-.16-.13-.27a.36.36,0,0,0,0-.42c.11-.06.17.12.19,0s-.05-.1-.09-.23,0-.2,0-.28c-.16,0-.14-.18-.14-.33a.2.2,0,0,1-.14-.23c.16-.08.12-.35.19-.5a1.08,1.08,0,0,0-.32-.24c.15-.06-.11-.26.1-.28s.06.06.14,0c-.07.06-.08.23,0,.24a4.22,4.22,0,0,1,.14-.69c0-.16-.07-.11,0-.19-.33-.09-.27-.55-.31-.79.08,0,.15.24.22.09s.07-.26.05-.55c-.06-.08-.27,0-.27-.14s0-.21,0-.33H146c.08-.08-.08-.14-.09-.19s0-.07,0-.14-.08-.09-.09-.18a.19.19,0,0,0,0-.1c0-.05-.05-.12,0-.13s.15-.06.13-.14a.82.82,0,0,1,0-.6c-.16,0,0-.23-.18-.24.15-.08,0-.34,0-.46s.09-.13.05-.23-.21-.16-.23-.33c.1,0,.12-.09.18-.13s.23,0,.19-.18c-.21-.06,0-.17-.09-.29,0,.05-.1,0-.09,0a.22.22,0,0,0,.14,0,1.28,1.28,0,0,1-.13-.42c0-.08.05-.15,0-.23s-.09-.09-.09-.18.06-.07,0-.14-.18.08-.22-.05A1.71,1.71,0,0,1,146,38c0-.18-.08-.22,0-.42.12.08.14-.15.05-.13s0,.1-.09.09c0-.2-.24-.2-.09-.42-.09,0-.3,0-.32,0s.35-.08.46-.18c-.13-.22.08-.5-.09-.61a.39.39,0,0,1,.18-.18c-.07-.17-.15-.32,0-.51-.1,0-.15,0-.14-.14s-.13-.39.05-.51c-.12,0-.26,0-.27-.14a.29.29,0,0,1,.13-.14c.09,0,.11.06.19,0,0-.27-.06-.55,0-.88.14.07.16,0,.19-.13-.15,0-.13-.08-.29-.15,0,.09,0,.16-.09.19,0-.16-.26-.08-.27-.14s.1,0,.19,0c-.06-.22.17-.13.23-.23-.15-.07.13-.06.13,0,0-.29,0-.29-.22-.42.12-.15.36-.45.19-.6,0-.07.22,0,.18-.13-.12,0-.19-.06-.23-.15s.09-.19.1-.36-.1-.12-.09-.24.07.06.14.05c0-.26-.08-.38,0-.6s-.21-.16-.23-.33.24.06.23,0-.15-.16-.18-.33h.23c.08-.16-.15,0-.13-.14s-.1-.27.13-.27c0-.16-.1-.26.05-.33-.11-.07-.12-.24-.22-.33.06,0,.09,0,.09-.08s-.22-.46,0-.7c-.12,0-.15-.07-.19-.14.19-.19,0-.48-.08-.75.14-.27-.09-.54,0-.74-.12,0-.17-.08-.23-.14.17-.12-.2-.12-.14-.28-.22.1-.25,0-.18-.24-.1,0-.15,0-.14-.14-.14,0-.18-.1-.27,0,0-.15-.08-.14,0-.28-.25,0-.33-.1-.5-.15s-.05,0-.1,0c-.09.13,0,.15-.13.23-.15-.2-.37-.06-.61-.2-.1.14-.19.06-.27.18-.13,0-.12.06-.23,0v-.14c-.3,0-.79.38-1.11.32,0,.13-.13.11-.19.18-.31,0-.41.41-.65.31,0,.12-.06.15-.13.19-.26-.06-.35.07-.56.08,0,.06-.06.09,0,.18-.37.09-.34.58-.74.64a.49.49,0,0,1-.46.31c-.08.09,0,.06,0,.18s-.16.2-.23.23-.07-.05-.09-.05c.08.21-.17.08-.19.18.23.05-.07.29-.13.09,0,.28-.59,0-.56.36-.11-.11-.09.07-.23.05a2.7,2.7,0,0,1-.28.31c-.08.08-.21.12-.27.23-.29-.07-.21.21-.46.17.07.16,0,.19-.15.28,0-.07-.11-.05-.18-.05s-.18.14-.28.27c0,0,0,.18-.1.14s-.09-.09-.17-.1,0,.28-.15.28-.17-.2-.36-.2c-.05.21-.16.47-.42.32,0,.15,0,.21,0,.33s-.57.13-.7.35c0,0,.08.09,0,.14s-.52.17-.65.31c0,.13-.06.12,0,.23s.11,0,.09.15-.23,0-.32,0-.1.08-.19.09-.06-.07-.14-.05c-.06.17-.14.4-.32.32a.34.34,0,0,1-.46.22c0,.18-.1.23-.23.23s.07.11,0,.18-.09-.08-.14-.05-.05.1,0,.09-.11,0-.18.09,0,.08-.06.09-.1,0-.13,0-.14.21-.23.22-.12,0-.19-.05c0,.15-.2.07-.13.28-.07,0-.09.06-.19,0-.05.17.18.08.14.23a1,1,0,0,0-.65.08c0,.07.05.24,0,.23s-.09-.13-.23-.09-.19.14-.37.22c0,.18,0,.37-.28.32,0,.07,0,.17-.05.18H129a1.29,1.29,0,0,1-.69.54s0,0,0,.09c-.17.06-.22,0-.23,0s-.13.25-.23.36a.7.7,0,0,0-.32,0,.27.27,0,0,1,0,.19s.13,0,.14,0h-.18c0,.09.06.1.09.14-.15,0-.21.11-.29.13-.24.11.12,0,.1.06s-.28-.05-.27.13c-.07-.14-.12,0-.24-.1,0,.07.06.16,0,.18s-.22.07-.19,0,0,.12-.09.09,0-.09,0-.09-.11.16-.28.13-.08,0-.18-.09c-.16.09.11.19,0,.23s-.07-.19-.1-.28-.09-.12-.19-.14v.23c-.12-.13,0,.06-.13.09s-.12.06-.14-.1.22-.17,0-.18c0,.19-.13-.15-.09.18-.19,0-.23,0-.33-.1-.14.13-.28-.15-.36-.24-.26,0-.38.07-.46-.15-.15.14-.21-.19-.33-.23s0,.13-.05.14a2.29,2.29,0,0,1-.09-.28c-.16,0-.25-.12-.37,0a1,1,0,0,0-.13-.28c-.45.07-.44-.31-.83-.29,0-.06-.06-.06-.05-.14s-.16.06-.23-.05a.14.14,0,0,1-.14.09c0-.16-.08-.15-.14-.19s-.09-.15-.14-.18,0,0,0,0-.15-.14-.28-.14a.34.34,0,0,0-.28-.28s0,.09,0,.09c-.18-.5-.71-.63-1-1-.27,0-.32-.15-.41-.29a.23.23,0,0,0-.14,0c0-.13-.17-.14-.14-.32-.11,0-.14-.08-.28-.06s0-.14,0-.18-.22.07-.19,0,.08,0,.09-.09c-.2,0-.23-.09-.33-.29-.12,0-.25,0-.31,0,0-.11,0-.26-.14-.32s-.26-.08-.37-.1.13,0,.13-.09c-.19,0-.2-.2-.46-.15a.13.13,0,0,1,0-.18c-.36.11-.38-.3-.78-.16a.27.27,0,0,1,0-.23c-.29-.19-.65-.32-.93-.52,0-.09.06-.09.09-.14-.24,0-.42-.13-.42-.29-.21,0-.27-.24-.37-.05-.08-.14,0-.13-.09-.28s-.16.09-.09-.05c-.22,0-.3,0-.42-.14,0,0,.07,0,0,0s-.14,0-.09-.1-.18-.05-.19-.14c-.38,0-.49-.25-.78-.34.08-.09,0-.05,0-.18s-.17-.05-.23-.1c.09-.18-.23-.31-.51-.29,0-.13-.16,0-.09-.23-.13,0-.16-.13-.28-.19s-.37,0-.41-.19h-.28c0-.06-.06-.07,0-.15-.18,0-.43.05-.46-.19-.12,0-.26,0-.33,0,0-.1,0-.15-.13-.14s-.06.13-.19.09-.16-.15-.23-.23a1.39,1.39,0,0,0-1,.26c0-.11-.17,0-.23-.06s-.13.21-.33.18c0,.18-.12.18-.13.28s.18.17,0,.19c0-.05-.16-.15-.14-.06s-.09.08-.1.14.09.07,0,.14-.1-.09-.09,0,.31.06.32.24c-.19-.06-.23,0-.28.13-.15-.09.12-.2,0-.23s-.1.18-.18.09V29c-.18,0-.21.13-.24.18s0,.15,0,.28c0,.3-.08.59-.09.83.16.18.07.35,0,.55,0,0,.1,0,.09.09s-.17.17-.05.28,0-.09.05-.09c0,.18-.12.33,0,.46-.06,0-.07-.06-.14-.05a4.71,4.71,0,0,1,0,.84c0,.06.09.1.09.18s0,.17,0,.23a.63.63,0,0,0,.09.33.26.26,0,0,1-.14-.05c0,.21.11.23.19.32s-.13,0-.14,0-.09.31-.09.47a.11.11,0,0,1,.09.13c-.1.13,0,.35,0,.42s-.07.06,0,.14.1.09.1.14-.09.07-.1.13,0,.16,0,.23-.09,0-.1.09,0,.22,0,.33a3,3,0,0,1,0,.74c.16,0,.06.18.09.28s-.06-.07-.14,0c-.06.18.14.12.14.23-.15,0,0,.11,0,.14s-.09,0-.1,0a1.7,1.7,0,0,0,0,.22.3.3,0,0,0,.09.24c-.06,0-.09.07-.19.05v.32c.15,0,.1.12.14.23s0-.06,0,0,0,.06,0,.09.13.16.1.24-.2.17-.19.36.08.05.09.1a1.18,1.18,0,0,1-.09.37.52.52,0,0,1,0,.6c.22.06.07.29,0,.46s.08.35.23.42a.24.24,0,0,0,0,.28H108c0,.23-.09.37,0,.61-.23,0-.06,0,0,.09s-.11.19,0,.23,0-.16.14-.14c.06.18-.07.38.09.51-.2-.13-.16.13-.37.13,0,.2.08.23.1.37-.2,0,0,.21,0,.23s-.06.1,0,.18.08.09.1.14,0,.11,0,.15.23.22.14.32.13,0,.13.05,0,.19,0,.37c-.07,0-.24-.06-.23,0s-.1.25,0,.28a.3.3,0,0,1,.09-.13c.1.09-.07.19,0,.36-.16-.14-.08.09-.14.23s-.12.08-.14.13,0,.21,0,.28.18.11.18.24-.08.13,0,.27.06,0,.19,0c.14.21,0,.4-.1.64,0-.14-.18.1,0,.1a0,0,0,0,1,.09,0,.22.22,0,0,0-.18.08,1.19,1.19,0,0,0,0,.7c0,.07.12.09.13.19s-.08.33,0,.5c-.11,0-.18,0-.19.09a10.13,10.13,0,0,1,0,1.57c0,.06,0,.06,0,.14s0,.23,0,.37.09.16.09.28,0,.05-.05.09c0,.37,0,.8,0,1.1,0,.07.18,0,.19.11s-.23.25-.14.31.09-.25.28-.13c.08-.12-.21-.1,0-.14a.15.15,0,0,1,0,.28c0,.14-.06.35.14.42-.09,0-.06.12-.19.08s-.06-.15-.19-.13a2.11,2.11,0,0,0,0,1.06c-.18.16,0,.53,0,.78.15.08.46.22.28.47-.13,0-.11-.23-.28-.24a2.76,2.76,0,0,1,.09,1.07c.24.28-.2.72.14.92,0,0,.15-.14.14,0-.18,0,0,.23,0,.32s-.1.1-.1.13.08.18.1.28-.09.21,0,.28a.29.29,0,0,0-.14,0c.09.15,0,.13-.09.28a.11.11,0,0,1,0,.1s-.09,0-.1,0,.13.23-.05.18c0,.14.15.39-.09.37,0,.17.18.11.19.24-.18,0,0,.15-.06.23s-.12.08-.09.17.16,0,.14.15c-.19.09,0,.23,0,.36s-.09.3,0,.47c.08,0,.12-.06.14,0s-.13.09-.1.23c.28.2.12.57.19.84-.06,0-.13,0-.14,0s0,.36.19.52c-.13.22,0,.52,0,.73-.13,0-.09.09-.19.09s0-.17-.13-.18c0,.26,0,.34,0,.64.41.08.29.39.42.56a.73.73,0,0,0,0,.61c-.1.1-.06.1,0,.18s0,0,0,.09a1.71,1.71,0,0,1,0,.51s-.09,0-.09.09a1,1,0,0,0,0,.28s-.06.06,0,.09.11.08.13.14-.13.51,0,.65c.1-.12-.1-.22.09-.23,0,.14-.16.43,0,.6-.16.13-.18.32,0,.41-.23.06,0,.21,0,.28s-.09,0-.09,0,0,.26,0,.32c.11,0,.24.32,0,.32,0,.07,0,.24,0,.23s0-.23.09-.18a.31.31,0,0,0,0,.23s-.13,0-.14,0,0,.07,0,.09c.08.19,0,.33,0,.55s-.17.12-.23.22a2.23,2.23,0,0,1,.19.24c0,.26-.09.63,0,.7-.08,0,0,.15-.09.18.14.08.07.23,0,.37a2.52,2.52,0,0,1,.14.33c0,.16-.17.45,0,.64-.06,0-.06-.06-.13-.05.1.13-.1.29,0,.42,0,0,0-.09,0-.09s-.08.22,0,.32c.09-.1,0,0,0,.09s.08,0,.1.14,0,.33,0,.46c-.22.13-.06.32-.15.51,0,0,0-.1,0-.1,0,.16-.13.26-.14.37s.17.18.05.28c.15,0,.2.06.28.1a.35.35,0,0,1,.09-.28c0,.14.16,0,.18.24s-.23.16-.09.28c-.21.13-.17.33-.41.49.15.1,0,.22,0,.38s.19.27.27.27,0,.11,0,.19c-.17,0-.09.16-.19.18s0-.21-.13-.14a.47.47,0,0,1,0,.46,1,1,0,0,0,.14.23c-.11.1,0,.16,0,.23a.14.14,0,0,0-.09.14c.16.09.18.09.14.32.14.06.11-.06.18-.08s.22.2,0,.23-.21-.15-.23,0,.1,0,.09.1-.07.14-.09.23c.14.1.15.34.28.46-.11,0-.14.14-.19.23.13.11,0,.25,0,.37s0,.15,0,.23-.14.19,0,.23,0,.06,0,.14.07.06.09.1a.92.92,0,0,1,0,.64c-.06,0-.06-.27-.13-.09s0,.23,0,.36a.66.66,0,0,1,.18.47c.1,0,.15,0,.14.14s-.09.16-.14.23.16.13,0,.14-.12-.14-.19-.19c-.22.15,0,.39,0,.55.05,0,.13,0,.13,0a.6.6,0,0,0,.19.74.3.3,0,0,0,0,.37s0-.07,0,0-.08.09,0,.18.2,0,.23-.13-.11-.14-.19-.19a.43.43,0,0,1,.33.15c-.14,0,0,.12,0,.18s-.06.08,0,.1a.13.13,0,0,1,.14-.1c-.11.15-.09.44-.23.55a.41.41,0,0,0-.09-.27s-.08,0-.14,0a2.13,2.13,0,0,0,.1,1c.18,0,.21.13.22.29.14,0,.17.11.23.19v.23a1.1,1.1,0,0,0,.83.43c.06.08.1.18.23.19,0-.17.16.1.14,0s-.15-.14,0-.14.28.29.37.1a.17.17,0,0,0,0,.13c.15.07,0-.14.19-.08,0,.06-.08.07-.1.14s.11-.08.15-.1.18,0,.22,0,0-.11.1-.14l.09,0c.13-.09,0,0,0-.18a.25.25,0,0,0,.17,0c0-.19.18-.11.06-.23.09,0,.14-.1.23-.14s0-.32,0-.46-.13-.11-.14-.19.08-.18,0-.28a1.13,1.13,0,0,1,.27-.13c.06.12.1.15.23.1,0-.23.07-.2,0-.41.07,0,.08-.08.14-.1-.08-.2.13-.34,0-.6.15,0,.07-.15.14-.18a.33.33,0,0,1-.14-.1c.13-.11,0,.08.19,0a.47.47,0,0,0,0-.28c.16-.11.13-.43,0-.55a1.79,1.79,0,0,0,.09-.65.22.22,0,0,1-.23-.09c-.06-.1.08-.12.09-.14s-.05-.25.09-.27.07.14.15.1,0-.46-.1-.52c.19-.19.07-.53,0-.88,0-.06,0-.09,0-.13s-.06-.16,0-.23a.74.74,0,0,0,0-.42s.13,0,.14,0,0-.56-.14-.79c.12-.12,0-.27-.09-.37s-.18.07-.33,0c.13-.07-.1-.32,0-.41s.09.13.23.09c.06-.27-.14-.29-.28-.37,0,.14-.1.08-.18.09,0-.17-.11-.45.28-.37,0-.14.1-.08.18-.09,0-.26-.16-.31,0-.5,0,0-.09,0-.09,0s.1-.24.18-.23a.42.42,0,0,1-.14-.09,2.69,2.69,0,0,0,0-.65c.12-.07.16,0,.23,0-.1,0-.13-.09-.14-.14s.09,0,.09,0-.06-.07-.09-.19.1-.23,0-.33a.2.2,0,0,0,.14,0c.06-.28-.17-.34-.05-.55,0,0-.09,0-.09-.05s0-.23,0-.37.07.07.09,0,0-.23,0-.46c-.28-.07-.09-.31-.13-.6.15,0,0-.23.18-.19-.05-.32-.26-.48-.32-.79.12,0,.09-.09.14-.13a1.38,1.38,0,0,1-.18-.65.12.12,0,0,0,.13-.09c-.12-.06,0-.14,0-.23a3.14,3.14,0,0,0-.09-.51s-.12,0-.14,0,.1-.21.14-.33a2.11,2.11,0,0,1-.09-.6c0-.06.08-.11.09-.18s0-.14,0-.18.08-.11.09-.19,0,0,0-.09c0-.24.08-.3-.08-.42.2.11.12-.07.13-.13s.25-.08.14-.18a.24.24,0,0,1-.1-.23c-.06,0-.16,0-.18-.06s.17,0,.18-.13-.16,0-.18,0,.18-.06.18-.18c-.21-.08-.19-.45-.09-.61a.24.24,0,0,1-.18-.18c.1-.06.3,0,.32-.18a1,1,0,0,1-.14-.33c.17-.26-.4-.33-.23-.6-.06-.09-.24.09-.27-.1s-.07-.35.13-.42c0,.1.07.1.09.15-.2,0,0,.33.1.37,0-.13,0-.16.09-.09v-.37c.17,0,.11-.19.14-.28s.17-.17.14-.27-.16-.09-.14-.23.06,0,.14,0-.07-.09-.1-.14,0-.1,0-.13-.17-.12-.09-.23a.73.73,0,0,1-.23-.29c.08,0,.12.07.14,0s.13-.29.32-.17c.07-.19-.08-.17-.14-.24.19-.09.16-.3,0-.41.25-.33-.11-.73,0-1.25-.08,0-.11-.13-.28-.09,0,.05,0,.12,0,.13s-.06,0-.19,0c0-.2-.1-.32,0-.37-.11,0,0-.21,0-.19s0,.14,0,.14,0,0,.09,0a.54.54,0,0,1,.14-.5c-.1-.19.1-.29.1-.51-.06,0-.13,0-.14,0,.15-.06,0-.3.14-.28,0-.21.06-.54,0-.69a0,0,0,0,1-.09,0c0-.12,0-.17.14-.13,0-.28-.07-.31-.19-.33v-.19c.12.13.1,0,.23,0s0-.2-.14-.23,0,.11-.09.09a.2.2,0,0,0-.05-.14c.18,0,0-.44.24-.45,0-.29-.07-.4,0-.61-.26,0-.14-.41-.14-.51S112,55.08,112,55a2.84,2.84,0,0,0,0-1.2c0-.12.18-.06.19-.18-.19-.1,0-.34-.19-.38V53h.14a.86.86,0,0,1,0-.41c-.07,0-.17,0-.19-.06.14,0,.11-.29,0-.36a.64.64,0,0,0,.14-.37s-.1,0-.09-.09.16,0,.14-.14-.13-.12-.14-.23,0-.14.14,0c0-.18-.08-.28,0-.46a.13.13,0,0,0-.19,0c-.09-.12,0-.17-.09-.28.15.17.11-.28,0-.32.1.11.12-.08.18-.14a.92.92,0,0,1,.1-.69,2.42,2.42,0,0,0-.1-.32c.17,0,0-.22.05-.41s-.11.05-.14-.06-.09-.28.09-.31a.27.27,0,0,0,0-.19h.14c-.12-.15.1-.18.09-.27s-.18,0-.14-.19c.1.11.12-.08.19-.14s-.24-.07-.24-.23,0-.23.14-.18c.14-.12-.12-.06-.09-.19s.1,0,.09-.09-.08,0-.09-.05,0-.08,0-.13-.11-.38-.14-.61c.09,0,0-.13.14,0,0-.2-.1-.21-.14-.33s-.12-.27,0-.42l.14,0c0-.08-.09-.18,0-.23s0,.21.14.19a1.51,1.51,0,0,1,.09-.18.43.43,0,0,1-.14-.61c0-.24-.17-.45-.09-.64-.08,0-.12.06-.14,0v-.51c0-.11.16-.09.14-.23-.24-.07,0-.33,0-.41s-.16-.13-.19-.19,0,0,0-.09,0,.06,0,0,0-.18.1-.27c-.17-.16-.17.13-.33.13.1-.09,0-.09,0-.18s.26,0,.37-.09c0,0-.12,0-.1-.09s.14,0,.14,0,0-.17,0-.33c.06,0,.06.06.14.05-.07-.23-.13-.38.05-.56-.05-.17-.21-.28-.23-.46s0-.08,0-.13a3.08,3.08,0,0,0,0-.51s.09-.13.09-.14-.05-.15-.05-.23c0-.24,0-.44.05-.65,0,.06,0,.13,0,.14,0-.18.16-.15.1-.37h.13c0-.35-.25-.4-.32-.64a.17.17,0,0,1,.14.05c.05-.21-.08-.24-.1-.38.14-.07.12-.31.19-.45-.27,0-.08-.31,0-.38a.14.14,0,0,1-.14-.09c.13-.1,0-.41.28-.41,0-.3,0-.84,0-1.15,0,0,.1,0,.1-.05s-.13-.09-.1-.23a1.07,1.07,0,0,1,.7-.49.71.71,0,0,0,.51.24s.09-.08.18-.09.18,0,.23.09-.07.09-.05.19h.23c0,.15.21.14.19.33.09,0,.1,0,.19,0a.48.48,0,0,0,.32.42c.15.06,0-.12.18-.09s0,.15.14.14.1-.24.19-.13.2.19.23.37c-.06,0-.11,0-.1.09a2.53,2.53,0,0,1,1.07.75c.15,0,.23.08.41.06s0,.26.14.32a.27.27,0,0,0,.23,0c.08.2.26.3.32.52a.39.39,0,0,1,.38.23c.11,0,.26,0,.32,0s-.17-.16-.05-.27.21.19.19.42a.63.63,0,0,0,.32.09c.11,0,.1-.14.18-.18,0,.2,0,.32.23.42,0-.13,0-.2.14-.18,0,.24-.11.48.09.42-.08,0,0-.15.1-.09s.15.19.37.14c0,.23.13.24.09.46.22,0,.26.24.5.25.08.09.12.23.29.23s-.1-.24.09-.27.12.18.18.28c.29,0,.41.25.51.47a.68.68,0,0,1,.37.1s0,.08,0,.09.1,0,.14,0,0,.09,0,.09.07,0,.08,0,0,.1,0,.24.06.12.19.09.24-.17.28-.08a.23.23,0,0,0,0,.27c.22-.08.2,0,.41.06,0-.16,0-.37,0-.47a.14.14,0,0,0,.13,0c.07.12.1.09.05.24.09,0,.11.07.14.13a.91.91,0,0,1,.09.52c.09,0,.12.13.28.09a3.31,3.31,0,0,1,.18.47c.13,0,.24-.1.37-.13s.08.2.19.24c0-.17.14,0,.28-.05.08.2.26.27.32.43a.33.33,0,0,0,.19,0c0,.2.25.21.42.28,0-.1-.1-.1-.06-.23.14,0,.32,0,.33.1s0,.25,0,.33c.3,0,.36,0,.65,0,.1-.23-.09-.41.09-.5s.14.07.23.1,0-.14,0-.14.11.1.18,0,0,.06,0,0-.07.17-.22.1c-.06.14.15,0,.09.18a.83.83,0,0,1,.6,0c.18-.18.45-.26.56-.5a.29.29,0,0,0,.23,0v-.28h.27c0-.16.07-.15.19-.14s-.14-.2,0-.23.08.07.14.09,0-.23.18-.14c-.05-.11,0-.14-.05-.18s-.07,0-.09,0c.17,0,.19-.09.33-.08-.11.1.08.12.14.18s0-.05.09,0c0-.16,0-.27.18-.32,0,0,0,0,0,.09s.25-.17.18-.32c.07,0,.09.07.19.05s0-.26.23-.28c0,.13-.18,0-.19.14.28,0,.21-.2.47-.09,0-.13.08-.15.13-.22-.11-.14.16,0,.19-.14.2,0,.33.1.41-.08-.07,0-.07-.22,0-.19s.08.08.14.1.26,0,.1-.23c0,0-.08,0-.14,0a.29.29,0,0,0-.05-.14.33.33,0,0,0,.09-.5c.11,0,.1-.08.23,0-.1.11,0,.28.09.18s0-.11,0-.18.1,0,.19,0-.08.15,0,.23a.21.21,0,0,1,.13-.13c-.05,0,.14,0,.14,0s0,.09,0,.09.08-.14.14,0v-.13c.15.14.13-.15.28-.14V38.5c.12,0,.17-.1.28-.12s.15,0,.18,0,.05-.2.19-.18v-.37c.23-.07.21-.07.23-.19a.3.3,0,0,0,.23.06c0-.12-.09-.1,0-.23s.21-.25.37-.32.17.12.18,0,0-.22,0-.23c.21.06.11-.2.33-.13,0-.16,0-.2.14-.23s-.08.08-.1.14.1,0,.05-.05h.18c-.08.15,0,0,.09.09,0-.09,0-.1,0-.18a.49.49,0,0,0,.14-.28c.15,0,.39-.12.46.06,0-.09,0-.12.14-.1a.53.53,0,0,1,.09-.45s-.06-.11,0-.1h.42c0-.08-.06-.27,0-.27s.13.24.1.41c-.06,0-.08.06-.14,0,0,.15.11.22,0,.32a1,1,0,0,1,.28.29c-.22.18.27.55-.09.6.08.48,0,.78,0,1.24,0,.11-.16.09-.14.23s.19.07.19.19c-.24,0,0,.29-.19.32.1,0,.12.13.14.23-.23,0,0,.32,0,.32s-.07.06,0,.15.08.07.09.13c0,.21.12.23.18.38-.1,0,0,.19,0,.27h-.19c0,.22.19.16.14.37-.22.1.08.47-.18.51.22.12,0,.42.23.55a1.49,1.49,0,0,0,0,.56c0,.05-.05.05-.05.09s.15.38.14.51-.07.18-.09.27,0,.28,0,.38a7.24,7.24,0,0,1-.09.73c.17.25.12.46.14.88a.69.69,0,0,0-.14.37,1.55,1.55,0,0,0,.14.32c-.09.16-.05.16-.14.33a.31.31,0,0,1,.18.27c0,.15-.12.09-.09.23a2.06,2.06,0,0,0,.14.84c-.09.23,0,.76-.09,1,.06,0,.08.1.09.19s-.09.3-.09.5.23.73,0,.56c0,.11.07.15.14.19s0-.1.05-.1,0,.23-.1.23,0-.09,0-.09v.14c0,.14.14-.18.18,0s0,.16,0,.23-.19.14,0,.09.3-.09.37-.22a.15.15,0,0,1,0,.23,1.63,1.63,0,0,0-.19-.09c0,.17.08.22,0,.41s-.23-.07-.33,0,.15.15.18.19-.07.27.1.32c-.08.09-.14-.05-.23,0a1,1,0,0,1,.05.55c0,.12.05.23,0,.32s-.09.15-.09.23c0,.33.23.68.05.93.09.21,0,.48.08.69,0,0,.08.07.1.14s0,.13,0,.19.21.19.09.28c.26,0,.18.27,0,.32s0-.08-.1-.1-.08.12-.09.19a6.39,6.39,0,0,0,.05,1.15c0,.07,0,.11,0,.14,0,.35,0,.62,0,1.06.15,0,.16.29.09.37.11.07.09.26.14.38s-.1.17-.1.32.2.08.23.19c-.16.09.14.37-.09.37,0,.12.09.19.09.32-.13,0-.08.13-.23.1a18.38,18.38,0,0,1,.1,2.58c.06.05.17,0,.18.14s.16.36-.05.41c.14.22,0,.35,0,.51s.07.1,0,.19-.14,0-.09.09.09,0,.09,0,0,.37.1.42c-.15.12-.06.3-.05.41.05.48-.12,1.1.05,1.35-.05.14,0,.1,0,.27s.12.1.19.15,0-.09,0-.1.12.18.14.24-.08,0,0,0,.16,0,.14.1-.16.23.05.23-.07-.08,0-.18c.22,0,.11-.11.18-.19,0,.09.15,0,.14.14-.09-.09-.13,0-.14.14s.12-.07.14,0,.05.27,0,.28-.2-.26-.32-.1c0,0,0,.16.14.23s.07-.11.09,0-.21.05-.23.18c.14,0,.15.1.14.23-.1,0-.09-.14-.19-.05s0,.33-.13.37c.06-.15-.28-.12-.28,0,.23,0-.05.14-.05.14s.05.1.05.18a6,6,0,0,0,0,.74c0,.15,0,.31,0,.41s-.09,0-.09,0,.05.1.05.14a1,1,0,0,0,0,.46.35.35,0,0,1,.23.23c-.06.15,0,.21-.05.37.07,0,.09.13.14.19s-.08-.06-.14,0,.07.2.14.28c-.2.16.06.39-.14.5.11.15.05.42,0,.65.05,0,0,.12.05.18s.15.09.18.19-.11.06-.09.09.11,0,.09.05a.4.4,0,0,0-.09.32c0,.06.08,0,.09.1s0,.09-.05.13-.07,0-.09,0,.05.11.05.09.06.19,0,.24-.06-.14-.14-.14c-.08.21.09.28,0,.55.16-.07,0,.16.14.14s0-.16.09-.14c0,.19-.06.21.09.28,0,.22-.1.3-.14.46s.13.13.14.23-.11,0-.14,0c.2,0,0,.12.1.18s.05,0,0,0,0,.13-.09.28.18.28.23.46a1.65,1.65,0,0,0,.05.79c.2,0,.13.18.18.28s.21.12.19.24-.11.09,0,.22c-.12.08-.17-.07-.18.09s.26,0,.32,0a0,0,0,1,1,0-.06c0,.06,0,.06.05.1s-.12,0-.09.14-.05.37-.24.41a2.21,2.21,0,0,1,.24.09c-.08.11-.08.12-.14.14.1,0,.14.25,0,.28,0-.21-.15-.22-.28-.28a2.4,2.4,0,0,0,.14.83c-.15.08,0,.25-.09.41a.82.82,0,0,1,.14.33c0,.14-.09.16-.05.32a.6.6,0,0,1,.05.61c.11.07.07.31.18.41s0,0,0,0a.69.69,0,0,1,.05.51c.09.1.15,0,.19.09A.39.39,0,0,0,139,82a.13.13,0,0,1,.14.1c-.1.06,0,.18,0,.23s0,.11,0,.14.09,0,.09.09-.06.07,0,.14.07.13.09.19.16.21,0,.32c.21,0,.14.33.09.46.13,0,.1-.09.19-.09s0,.54.18.24a.36.36,0,0,0,0,.23h-.13c0,.18,0,.14,0,.29.16,0,.29.3.13.41.14,0,.15.16.23.24s0,.06,0,.18.1-.08.23,0c-.06.13,0,.05.1.05,0,.22.21.48.41.37,0,.09.05.11.14.1-.11.1.06.13,0,.28a1,1,0,0,0,.37-.09c.1.06.14.18.28.19s0-.16.09-.23A.57.57,0,0,1,142,86c.15,0,.15-.15.28-.17s.07.09.13.08.07-.09.19-.08.06,0,.14,0c0-.23.06-.33.23-.36,0-.15.07-.14.13-.18-.14-.56.48-.67.2-1.06.11-.06.22.1.23,0s.07,0,.09,0c.05-.18-.15-.11-.18-.2s.12-.19.14-.23,0-.1,0-.13.21,0,.14-.14-.23-.11-.23-.28c.06,0,.06-.06.13,0s-.06.07,0,.09.33-.32.15-.46a.3.3,0,0,0,.13-.09s-.08-.13-.13-.19c.15-.11.13-.4.28-.51,0,.06,0,.13,0,.14a3.52,3.52,0,0,0,0-.55s0-.07,0-.09-.07-.21,0-.28.1.08.09,0-.19-.19-.09-.28.19-.16.19-.18-.06-.34,0-.47.18-.08.09-.17-.15-.13-.18-.24c.13,0,.1.15.23.14s-.09-.14-.09-.28.14-.22.23-.32c-.06-.12,0-.48.05-.69-.2-.09-.07-.24-.13-.42.22,0,.09-.13.1-.28.41,0-.1-.45.23-.46-.06-.21-.19-.34-.13-.65a.11.11,0,0,0,.13-.09c-.1-.15,0-.23,0-.32s0,0,0-.1-.1-.1,0-.18,0-.19,0-.28h.22s0-.08.05-.09c0-.17-.14-.16-.18-.28s.24-.09.23-.27c-.21,0-.14-.21-.18-.33.06.06.17.06.18,0s-.07-.21,0-.23.09,0,.09,0c0-.22-.06-.28-.13-.51.08,0,.1-.07.09-.18s.15,0,.14-.14c-.22,0-.37-.47-.37-.61s.08,0,.1-.09,0-.3.1-.28c0,.1.16.23.23.1-.14,0-.14-.12-.14-.23s-.28,0-.28-.15c.09,0,.12.11.23.1s-.06-.12,0-.23c.22,0,0-.26,0-.33s.07.07.09,0-.29,0-.32-.24c.12,0,.15-.07.23-.08s-.13-.21-.18-.34,0-.1,0-.13-.13,0-.09-.1c.15.08.17,0,.37,0a.39.39,0,0,1,.14-.32.32.32,0,0,1-.14-.14c.16-.19.08-.5,0-.75,0,0,0,.06,0,0s.15-.16,0-.18c-.07.13-.23,0-.23-.1.09.1.1,0,.18-.09-.08,0-.1,0-.09-.14.1.11.14,0,.23,0,0-.09-.07-.09-.09-.14s0-.1,0-.14-.17,0-.14-.14.31,0,.28-.17-.11-.24-.28-.15c0-.09,0-.19,0-.28a.22.22,0,0,0,.13,0c0-.08,0-.16,0-.23s.1,0,.1,0-.06-.33.09-.42a1,1,0,0,1-.09-.51s.17.12.19,0a.45.45,0,0,1-.23-.38c.26-.12.42-.26.33-.54a.19.19,0,0,0,.13,0c0-.2-.22-.18-.22-.37s.1-.24.18-.33c-.22-.09-.13-.21-.23-.41s.17-.09.15-.24c-.09-.33.2-.53.1-.92-.1,0-.15,0-.14-.14s.22-.17.14-.18-.22.07-.18,0,.12-.31.19-.46c-.18-.08-.1.12-.24.09a.22.22,0,0,0,0-.15c.15,0,.15-.24.28-.31v-.33c.13,0,.16-.18.24-.27s0,.07.08.09a.22.22,0,0,1,0-.13c-.2,0-.22-.16-.27-.29.12-.14,0-.23,0-.46-.16,0-.14-.22-.17-.37.05,0,.06.06.13,0a1.74,1.74,0,0,1-.09-.59.34.34,0,0,0,.19-.28c-.11-.15-.14-.08-.23-.14s0-.3.19-.28c0-.19,0-.34-.09-.42s.08.06.14,0c.05-.3,0-.44-.32-.43,0-.12-.09-.09-.09-.18s.08,0,.23,0c0-.17.31-.23.19-.37-.09.14-.25,0-.19-.19.09,0,.1-.05.19,0,.05-.17-.12-.13-.09-.28a.52.52,0,0,0,.19-.6h-.14c.12-.14-.18-.15,0-.32a.14.14,0,0,1-.14-.1c.24,0,.32.2.46.1s-.18-.13-.23-.24.13-.08.14-.18-.11,0-.09-.09h-.37c0-.13,0-.28.09-.28s.32.14.37.05a.11.11,0,0,1,0-.18c-.06-.05-.17-.05-.19-.14s.11-.12.1-.23-.14,0-.18-.1,0-.17,0-.18-.05.06-.09.08c-.06-.18-.25,0-.37-.15s.13-.1.19-.17c0,.11,0,.17.09.18,0-.19.09-.21.09-.37s-.14.07-.22.09c0-.14-.13-.12-.14-.23.14,0,.18,0,.23-.09s0,.08,0,.14c.13,0,.1-.08.19,0,.06-.14-.14,0-.09-.18s.05-.26.19-.28h.23v-.19c-.07,0-.24,0-.23,0s.24.06.23,0-.06-.19-.09-.28-.12-.11-.09-.19c.09.08.06,0,.18,0s0-.1.05-.1c-.12-.14,0-.29-.13-.37s0,.09,0,.09a.27.27,0,0,1,0-.23h.23c.09-.16-.07-.19-.1-.37.15-.12.13-.24.1-.46,0-.06-.17,0-.18-.1s.06-.34.19-.41a0,0,0,1,0,.08,0,.21.21,0,0,1-.17-.23c.15,0,.14-.14,0-.19s.13,0,.14,0a2.82,2.82,0,0,1-.23-.42c.16,0,.23-.13.34-.27m-.49-14.17c.08,0,.28,0,.28.05s-.35.11-.28-.05m.14-5.78c.12,0,.15.06.14.18s-.15-.06-.14-.18M108.34,74.33c-.11-.11.08-.15,0-.32.2,0,.17.36,0,.32m3.78-18.12c.1,0,.19.2.1.28-.06-.07-.2-.17-.1-.28M112,41.58c-.17,0-.13,0-.27,0,.06-.08.1-.2.27-.17Zm14.36.82c0-.11-.08-.1,0-.23a.47.47,0,0,0,.28,0,.18.18,0,0,1-.23.18m2.63-7c-.08,0-.1-.06-.19,0s.21,0,.14-.23c.22,0,.08.18.05.28m16.77,5.83c0,.18-.14.14-.23.18,0-.13.08-.2.23-.18m-.33.73c0-.13.11-.13.23-.13s0,.09,0,.09c-.07.19-.12-.07-.27,0"/><path d="M145.75,57.41c.1,0,.08.16.23.14v-.13a.27.27,0,0,0-.23,0"/><path d="M42.47,81.06c-.07.06,0,.11,0,.18s-.09,0-.09,0,0,.2,0,.19.26-.12.19-.37Z"/><path d="M51.7,67.45c-.08-.16,0-.21,0-.38s.19,0,.18-.18v-.15c-.06-.06-.23,0-.23-.13s.1,0,.09-.09-.19-.33-.18-.46c.18,0,.18-.18.27-.23s.17.12.14,0c0,0,0,0,0,0s-.16,0-.18-.18.24,0,.32-.23A.42.42,0,0,1,52,65c0-.07-.23,0-.19-.14s.17,0,.28,0,.14-.14.14-.28c.08.08.18,0,.18-.14s-.18-.07-.18-.18.24-.14.28-.28c-.12,0-.2,0-.19-.14s.17,0,.23-.09a1.2,1.2,0,0,1,.1-.6s0,0,.09-.05.09.12.18.14c-.07-.27.18-.23.14-.46.05,0,.13,0,.14,0s0-.13,0-.28.17,0,.14-.13a.68.68,0,0,1,0-.46c-.22,0-.14-.28-.14-.33s-.08-.19,0-.27c-.16-.09,0-.19,0-.37l.19-.1c0-.12-.07-.11,0-.23s.17-.08.33,0c0,.2.14.26.23.37s-.13.09-.09.23c.12-.06.22.1.23,0s0-.23,0-.46c-.05-.07-.19-.05-.18-.19s.11.08.18.1a2.8,2.8,0,0,0,.09-1c.06-.07.17-.19,0-.23,0,.15-.09.08-.13,0,.11-.26.23-.53.64-.5a2.91,2.91,0,0,0,0-.74c.26-.1.15-.46.13-.74s-.17,0-.22-.14c.13,0,0-.18-.05-.23-.28.15-.35-.2-.37-.46a.62.62,0,0,1,.32,0c.07,0,.08.38.19.23s-.06,0,0-.05.17,0,.23,0,0-.08,0-.09.07,0,.09,0,0-.06.1-.09.26-.06.37-.19c-.13-.05-.17-.2-.24-.32a1.8,1.8,0,0,1,.33-.47c-.08,0-.11-.07-.09-.18h.22c0-.2.19-.33.24-.5s-.06-.11,0-.19.12-.06.09-.19-.1-.11-.09-.23c.06.07.14,0,.14-.09s-.18,0-.14-.18c.25,0,.35-.31.28-.46.22,0,.2-.2.37-.23,0-.21.21-.35.09-.51,0-.07.18,0,.18-.09s-.23-.11-.27-.24,0-.24.14-.23c0,.18.06.24.13.32s.31-.21.14-.36c0,0,0,.11,0,.09s0-.85.18-.79c0-.39.05-.69-.14-1,.23,0,.26-.09.19-.24.15,0,.14.09.23,0a.81.81,0,0,1-.09-.64c.24-.09.3-.38.55-.46,0-.31.15-.51,0-.79.08.07.12-.07.18-.09a2.13,2.13,0,0,0,.51-.14.24.24,0,0,1,0-.18c-.12,0-.27.18-.37,0,.26-.08.06-.35,0-.46.19-.1.21-.37.22-.65.21,0,.27-.42.24-.27-.12,0-.14.14-.24.18a.91.91,0,0,1-.41,0c-.15-.12-.13-.59.14-.56s.12.38.37.38c0-.12-.08-.11,0-.24a.3.3,0,0,0,.18-.18s.08,0,.09-.05-.13-.57,0-.54c0-.15-.11-.1-.13-.19s0-.27,0-.42.27-.46.18-.78c.18.05.13-.12.29-.1s0,.17.13.19c0-.14,0-.09,0-.23.26,0,.3-.29.37-.51-.08,0-.08-.13-.23-.09-.07.22.11.19.09.37s-.31,0-.41-.09a.39.39,0,0,1,.14-.33c-.07,0-.09-.12-.14-.19.17-.1,0-.52.27-.55.09.2-.27.19-.09.32,0-.14.1-.14.23-.13,0-.26.22-.27.33-.42s-.15-.18-.14-.37,0-.36.27-.32c0-.06,0-.13.05-.14s.21.21.33.09-.29-.14-.33-.32.17,0,.19-.14c-.16,0-.12-.34,0-.32,0,.12,0,.2.14.18-.08-.17.13-.16.14-.18s0-.34,0-.28,0,.17,0,.19-.1-.12-.09-.23c-.17-.09-.22-.25-.38-.23-.07-.2.12-.37.24-.52,0,.13.16.07.23.1s0,.18.09.05a.47.47,0,0,1-.09-.37c.09-.08,0,0,.18,0s-.12-.09-.09-.24.15-.21.19-.37a.76.76,0,0,1,0-.36c.06,0,.09-.13.19-.14s-.06-.21,0-.28.09,0,.09,0c0-.19,0-.36,0-.6.09-.05,0-.24.18-.23s-.09-.43.09-.41,0,.25.1.23a.47.47,0,0,0,.09-.51c.17,0,0-.22.19-.24a2.21,2.21,0,0,1,0-.68c.14-.06.12,0,.23,0v-.37c.19,0,.12-.43.32-.28,0-.31-.08-.5.14-.65.06,0,.08.08.13.1a.73.73,0,0,0,0-.74c0-.13.2-.08.18-.23-.22-.47,0-.86.05-1.38.1,0,.12-.1.19-.15S62.71,32,62.7,32l.18-.09c0-.24.13-.41.14-.6s-.06-.08-.05-.18.13-.1.1-.19-.13-.06-.1-.19.29-.16.42-.27c-.09-.16-.24-.25-.28-.46.15-.31.41-.52.37-1-.11,0-.18,0-.19-.09v-.23c.18,0,.26-.17.37-.28s0,.17.14.14.11-.36.19-.51l-.14-.13v-.42c-.06,0-.13,0-.14-.05a1.68,1.68,0,0,1,0-.41.19.19,0,0,0,.13,0c.09-.22,0-.26,0-.41s.07-.22,0-.37c.09,0,.12-.09.18-.14a1.21,1.21,0,0,1,.37-1c.21.06.37-.16.23-.28,0,.06-.13.06-.13,0-.15-.34.31-.65,0-1,.16-.05,0-.14,0-.23s.08,0,.08,0,0-.08,0-.09.11,0,.14-.09-.09-.09,0-.14a.17.17,0,0,0,.13-.05c0-.18,0-.59.14-.45a4.91,4.91,0,0,0,0-.88c-.18-.21-.54-.48-.38-.88,0,.05,0,.11.1.09,0-.2.27-.25.37-.41s.14-.17.32-.15c-.06-.25,0-.42.23-.45,0-.14.11-.3,0-.47,0,.13-.22,0-.18.09s.16.09.13.24h-.23c0-.1-.17-.32,0-.42.17.05.26,0,.37.05a.57.57,0,0,0,0-.41c-.16,0-.15.15-.27.18s0-.26-.1-.32c.17,0,.12-.13.28,0,.05-.15-.07-.11-.09-.18.19-.13.15,0,.23-.28,0-.09.08-.17,0-.28s-.11-.13-.18-.19c.05-.26-.1-.33-.14-.5s0-.17.09-.19c-.12-.29.11-.54.1-.87a.91.91,0,0,0,.41-.51c-.11,0-.26.08-.28-.09.06,0,.07.06.14,0-.12-.2,0-.46,0-.55.23,0,.12.3.27.37s.08-.05.14,0,0-.15.05-.33c-.15,0-.15-.16-.28-.18V15c-.16,0-.06.18-.23.14a.3.3,0,0,1-.14-.1c0-.33.23-.69.56-.6,0-.14-.15-.1-.1-.27s.15-.13.19-.24c-.11,0,0-.21,0-.23s.18,0,.19,0-.21.06-.28-.09,0-.27.19-.23c0,.06-.06.24,0,.23s-.09-.36-.09-.56c.17-.3-.11-.75.09-1.1a.92.92,0,0,0,.32-.33c-.11,0,0-.21,0-.29s-.15,0-.1-.09,0,0,.1,0c-.1-.15-.21-.7.09-.7,0-.21,0-.41.14-.46s.2-.11.27-.18a7,7,0,0,1-.09-1.48c.15,0,.09-.28.19-.37s-.07-.12,0-.23l.28-.14c0-.28.31-.3.23-.7,0,0,.06,0,.14,0a4.31,4.31,0,0,1-.1-.55c0-.12.06-.19.05-.28S68,6,68,5.91s0-.1,0-.19-.09-.18,0-.27.06.06.13,0c.08-.33-.15-.59,0-.69s0,.06,0,0c0-.22-.28-.43,0-.6a.22.22,0,0,0,.09.19c0-.16.19-.07.14-.24s-.15,0-.14-.14c.28,0,.37-.56.37-.83-.08-.06-.18-.09-.19-.23s.11-.27.19-.37a.3.3,0,0,1-.13-.09c0-.1.12-.09.13-.19s0-.4-.09-.5a.31.31,0,0,0,0-.37c.16,0,0-.11.1-.19-.11-.24-.36-.44-.28-.73-.15,0-.12-.17-.19-.24s-.25-.11-.32-.23-.26,0-.32,0A.6.6,0,0,0,67.35,0c-.07.15-.13,0-.23,0s-.29-.06-.38.09c-.09,0-.06-.11-.18-.09s0,.17-.18.19-.08-.06-.19.05A.48.48,0,0,0,66,.69c-.18,0-.2.13-.27.23-.23,0-.31.12-.46.18s.07.14,0,.28H65a1.11,1.11,0,0,1-.55.65.62.62,0,0,1-.23.37c.11.19,0,.34-.14.46.1.17,0,.29,0,.51-.22,0-.19.36-.32.5a.35.35,0,0,0,0,.24l-.27.18a1.68,1.68,0,0,0,0,.46c.21,0,.17.26.23.42-.11,0-.17-.08-.32,0,0-.14-.12-.13-.19-.18,0,.23-.2.25-.31.37s.05.16,0,.22-.12-.06-.24,0a.2.2,0,0,0,0,.23,1.27,1.27,0,0,0-.13.19c-.06.11,0,.19-.1.27s-.21.17-.27.28.05.23-.09.23.08.1,0,.23a1,1,0,0,0-.18.79.29.29,0,0,1,.14,0c.12-.06.1-.26.27-.27s0,.26,0,.46.08,0,.09.09c-.14.09,0,.38-.23.42,0-.12,0-.17-.13-.14s.15,0,.09.23c-.15-.06-.11.07-.19.09s.06-.4-.09-.46c0,.06-.06.06,0,.14s-.06,0,0,0,.12-.07.14,0-.16.18-.23.28c0-.24-.19-.25-.1-.42-.22,0,0,.14-.13.19s-.27,0-.37,0c0,.17-.12.22-.14.36-.22,0-.12.22-.33.19a2.51,2.51,0,0,0,.14.69c-.12.06-.14,0-.09.19s-.09.06-.19,0c-.09.25-.09.61-.36.69v.18a.26.26,0,0,0-.19,0c0,.35-.29.5-.28.92-.12,0-.12.13-.18.19-.09-.09,0-.09-.19-.05a1.09,1.09,0,0,0,.14.37c-.14.1,0,.24-.1.41.22.2.24.72-.08.84-.1,0-.09-.13-.19-.14s-.19.12-.14.32a1.24,1.24,0,0,0-.22.18.84.84,0,0,1-.37,0c-.06.15,0,.32,0,.46s-.07.07-.09.14,0,.48-.23.55c-.06,0-.09-.06-.19-.05s.09.11,0,.24a.22.22,0,0,1-.13,0c0,.13.06.12,0,.23a.88.88,0,0,0-.23.14c-.07.62,0,.93-.14,1.48,0,0-.12.06-.13.09a2.22,2.22,0,0,0-.09.28c-.1.19-.13.23,0,.41a.28.28,0,0,1-.23.05c.05.15,0,.13-.1.18,0,.31-.1.26-.08.51-.19,0-.17.15-.23.23s-.09,0-.1,0,0,.19-.14.14a3.82,3.82,0,0,1-.18.51c0,.06.17,0,.18.09-.16,0-.11.2-.18.28s.23,0,.18.14-.12-.07-.22,0-.1.1,0,.23c-.27.07-.26.42-.37.65.05.08,0,.24.13.28-.13.22-.32.33-.23.69-.14.05-.2.19-.27.32s.13.14.13.28a.21.21,0,0,0-.18.05c0,.19-.15.18-.14.37s.16.21.19.36c-.09,0-.12-.09-.24-.09a.61.61,0,0,1-.09.32c.23,0,.31-.18.56-.18,0,.24-.13.3-.23.41,0-.2-.41-.15-.51,0a.37.37,0,0,1-.14.41c.06.13.21.16.23.33-.28,0-.14.44-.32.55,0-.08,0-.11-.14-.09,0,.2-.21.21-.19.46-.19,0-.17.23-.23.37s.18.17.1.37c-.15,0-.09-.13-.23-.09s.14.2.13.37a.26.26,0,0,0-.18,0c0,.19.1.18.09.33a1.3,1.3,0,0,0-.41.87c.05,0,.1,0,.09.09-.2,0-.18.14-.28.19.14,0,.09-.13.23-.09s0,.28-.09.32,0-.15-.19-.09c-.1.25.35.18.15.37,0-.13-.1-.12-.19-.14s0-.15-.14-.14c.08.15,0,.23-.09.28.12,0,.15.06.14.18a.27.27,0,0,1-.24.14c.05.22,0,.31-.18.32,0,.22.12.23.14.37-.27,0-.25.34-.18.51a1.25,1.25,0,0,0-.42.87.67.67,0,0,0-.33.15c0,.11.09.1.05.23s-.24.3-.23.56c-.21,0-.13.33-.32.36a1,1,0,0,0,0,.37.72.72,0,0,0-.23.23c.21.07,0,.06,0,.09s.21.39,0,.23c0,.23.13.27.19.42-.14,0-.12-.07-.24-.05,0,.16-.13.07-.18.1s-.11.15-.18.13c0,.15.07.15.09.23-.1.26.06.47-.05.83a.25.25,0,0,1,.14.24c-.08.15-.3.19-.23.5a.52.52,0,0,0-.37.7c0,.07-.15.09-.19.18s.05.47.21.58l0,0,0,0c-.07,0-.17,0-.25.07a.58.58,0,0,0,0,.32c-.35.16-.35.67-.28,1-.12,0-.08.09-.13.13.22,0,0,.28.22.33,0-.07-.05-.24,0-.23s.11.32.23.41c-.09.1-.14.22-.28.28-.14-.14-.27,0-.46-.09.09.18-.08.08,0,.27a1,1,0,0,0-.32.41c0,.14.07.13,0,.24s-.15.21-.18.28,0,.11,0,.13-.11,0-.14.06,0,.1,0,.13-.19.12-.24.05c0,.2.06.41.24.46a.36.36,0,0,0,0,.32c-.22,0-.13.26-.09.37s.14-.19.18,0-.15.07-.18.14v.37c-.32.17-.36.6-.47,1,.14,0,.09.28.24.32-.07,0,0,.06,0,.1l-.09,0s0,.14,0,.19-.12.05-.14.09,0,.17,0,.23-.07.06-.09.14,0,.19,0,.28-.2.36-.24.5v.19c.08,0,.18,0,.19,0s0,.13,0,.14-.21,0-.33,0c.06.2-.09.33-.09.6,0,.12.14.14.14.27-.24-.2-.11.32-.32.14.16.4-.23.56-.19,1-.2,0-.19.15-.37.14.14.22-.15.28-.05.42a.1.1,0,0,1,.19,0c-.14,0-.2.17-.28.27.15.26.11.51.37.69,0,0,0,.08,0,.14h.23c.06-.14,0-.15,0-.32s.1-.21.27-.19a.22.22,0,0,1,.14.14c-.08.26.11.77-.14.88-.06-.25-.32,0-.46,0a.4.4,0,0,1-.18-.51c-.24,0-.4.29-.23.42a.23.23,0,0,0-.18,0c0,.18.12.21.22.28-.05.06-.06.17,0,.19s0-.27.09-.28.27-.06.28,0c0,.41-.2.62,0,.88-.12,0,0,.24-.23.18a.61.61,0,0,0-.42-.32c0,.16-.08.22-.1.32s.08.06.1.19-.1.19-.05.32.1,0,.19,0a4,4,0,0,1,.22,1c-.15,0-.08.25-.13.36s-.08,0-.09,0,.18.43-.09.42c0-.23-.28-.06-.28-.14.09-.37-.09-.45.05-.74a1.11,1.11,0,0,1-.19-.09.4.4,0,0,0-.09.38c-.2,0-.19.27-.28.41s-.22-.2-.23,0c0,.07.11,0,.19.05-.07.24.22.14.18.37-.15,0-.09-.25-.28-.23,0,.14-.17.15,0,.28-.07,0-.15.06-.14.18s.08.32.14.46-.12.23-.14.28a3.05,3.05,0,0,1,0,.69c-.4-.09-.08.53-.36.56,0,.13.13.1.13.23s-.06.12-.18.09c0,.14.12.12.14.23-.31.08-.22.34-.32.55.13.07,0,.09,0,.28s.09-.16.19-.19a.65.65,0,0,1,.5-.13c0-.16-.08-.19,0-.28s.27-.06.28,0,0,.29-.23.27.27.17.09.28,0-.13-.09-.14-.25-.06-.37,0,.16.15.23.23a.14.14,0,0,0,.09.14c0-.09,0-.23.1-.19,0,.22,0,.5-.19.6.18,0,.1.3-.05.23s0-.22,0-.32-.29.12-.46.14c0-.07.06-.24,0-.23s-.19-.05-.32,0c-.08.35-.14.72-.23,1.06,0,.12.19.11.18.28s-.12.16-.23,0c0,.19-.2.33-.23.55a1.4,1.4,0,0,0,.09.7.7.7,0,0,0-.41.46c0,.08.21,0,.22.09-.21.08,0,.24.1.33-.2-.13-.12.11,0,.22h-.14c.11.29-.05.49,0,.7-.12,0-.09.09-.13.13.16-.06,0,.29,0,.14A5.87,5.87,0,0,1,44,63c-.16,0-.29.24-.19.46-.24,0,0,.38,0,.38s-.16,0-.1.08,0,.2-.09.33c.21.46-.24.74-.09,1.1-.16,0-.07.23,0,.33a.59.59,0,0,0-.13.37.28.28,0,0,0,0,.1s0,0-.06,0,.07.29,0,.37-.11,0-.1.09.08.14.1.23c-.19,0,.06.14-.19.09.12.32-.18.5.19.65-.08,0-.09,0-.1.09s.16.62,0,.7c.11,0,0,.12.1.18s.28.07.18.19c.18,0,.16,0,.28-.05s-.21.16-.21.28c.21-.06.12.14.14.23s.09.15.09.19a1,1,0,0,1-.09.32c-.13,0-.12-.06-.24,0s.06.1,0,.22.14.06.12.1.11.14,0,.18-.07,0-.13,0c0-.2-.07-.19-.19-.33-.14.08-.32.11-.46.19.13.16.07.31,0,.51s.17,0,.18.09-.09.3,0,.28-.06.18.1.18c-.09,0,0,.18-.19.14,0,.33-.12.63,0,.87-.29.17-.13.52-.28.79a.37.37,0,0,1,.18.32h-.18c0,.16.16.18.18.32-.15.24.09.47.1.7-.15,0-.09-.13-.23-.1,0,.27-.19.4-.28.6.07,0,.16,0,.14.1s-.12.13-.23.14c0,.21-.09.29-.05.5,0,.06.08,0,.09.1-.08.26.14.76,0,1,.15,0,0,.12,0,.14s.17,0,.1.14c-.15,0-.17,0-.28,0s-.09.19,0,.27c-.15,0-.16.21-.33.23,0,.23.26.18.19.47h-.19c0,.22.25.45.05.6.18.23,0,.64-.09.87.17.14,0,.36.18.46-.13.1.12.19.09.32a.26.26,0,0,0,.19,0c0,.08.1.11.09.23s-.14-.06-.18.09c.15.1-.13.15-.19.19.13.26-.09.46-.14.69.06,0,.13,0,.14,0s-.12.19-.18.29A.67.67,0,0,1,42,82c0,.12-.14.25,0,.37-.06,0-.09.07-.19,0a5,5,0,0,0,.1,1.34c.05.11.23.1.23.28a.29.29,0,0,1-.19,0c0,.28.12.33.24.46,0,0-.06,0-.1,0,0,.41.09.8.37,1,0,.14.06.29.19.32s.07,0,.13,0c0,.19.22.16.28.28s.2,0,.28,0,.05.09.09.1.25-.1.33,0c.15,0,.17-.16.32-.18s.07,0,.14,0c.23-.19.39-.47.82-.45.09-.14,0-.22.14-.24V85h.14a.35.35,0,0,0-.14-.32c.06-.14,0-.13,0-.32s.22,0,.38-.09,0-.53.18-.37c-.06-.18-.25-.65.18-.56.08-.25.15-.54,0-.7.16,0,.34-.12.32-.22.11.12.1-.27.18-.32s.1,0,.24,0a1.06,1.06,0,0,0,.09-.33c-.18-.07-.09.13-.23.09s0-.36,0-.64c.13,0,.06-.24.28-.19,0-.17-.21,0-.19-.19s0-.4.33-.32c-.12-.36.27-.44.46-.36-.05-.19,0-.22,0-.47h.13c0-.34.29-.46.42-.69a1.43,1.43,0,0,1-.28-.55c.12-.16.29-.08.37-.19.2.16,0,.12,0,.28s0,.12.18.18c0-.31.27-.49.14-.78,0-.12.13-.14.14-.28s-.16-.21-.19-.37.22,0,.28-.09c0-.21,0-.37-.14-.42.18-.06,0-.09,0-.23.14,0,.08-.1.09-.18.24,0,.17-.41.41-.47.08.07,0,.28.14.28.1-.16,0-.27,0-.41a.34.34,0,0,0,.22-.23c.07-.15,0-.21,0-.28s.1,0,.1-.14-.1-.15,0-.22.1-.3.18-.42c-.18-.17-.1-.24-.18-.42.1-.06.17.12.18,0s0-.2-.05-.28.1.08.09,0-.29-.16-.14-.39c-.07,0-.24.06-.23,0a1.86,1.86,0,0,0,.32-.23c0,.06,0,.17,0,.18,0-.18.17-.23.32-.27-.1-.15,0-.18,0-.23s0-.14,0-.19.15-.14.18-.19c-.17-.13,0-.46,0-.69a.27.27,0,0,0,.23,0c0-.12-.08-.1,0-.23.06,0,.17,0,.23.09v-.41c-.22,0-.06-.31-.23-.33.09-.17.2-.3.14-.51.1,0,.15,0,.14-.14a.36.36,0,0,1,0-.32c.17.14.17-.2.37-.18,0-.27-.08-.39-.05-.65.15,0,.1-.1.14-.19s.23,0,.14-.14a.77.77,0,0,0-.46-.36,2,2,0,0,0,.27-.92c.06-.07.21,0,.32,0s0,.19.1.23-.06-.33,0-.37c-.08.18.2,0,.18.13v.24c.14-.06.11,0,.23,0M65.91,14c.19,0,0,.26.19.23a.92.92,0,0,1-.28.19.3.3,0,0,1,0-.23c.22,0,.19-.05.14-.19M65.41,18c-.09,0-.2,0-.19-.14s.23,0,.19.14M63.7,28c.09,0,.19.13.09.22s-.09-.11-.09-.22m-.14-.24c.11,0,.14.26,0,.28s0-.2,0-.28M63.24,5.31c.07,0,.08,0,.13,0,0,.16,0,.23-.18.24s0-.16.05-.28m-.56,26h.19c0,.14,0,.2-.19.18Zm-1,3.27h.14c0,.18-.08.22-.05.42-.17,0-.16-.32-.09-.42M61.3,9.09a.37.37,0,0,1,.23.33c-.15.08-.11-.09-.14-.14s-.18-.17-.09-.19m-5.17,44c0-.14.1,0,.18,0,0,.14-.11.16-.18.09s0-.09,0-.09M43.62,67.9c-.17,0-.14-.17-.19-.28h.19Zm.92-8.49c-.22,0-.08-.31,0-.46.23,0,0,.28,0,.46M48,78c-.12,0-.15-.07-.23-.09s.28,0,.23.09m1.61-37.8c-.08,0-.1-.08-.09-.19h.19c0,.15-.15,0-.1.19m1.71-6.93a.25.25,0,0,1,.14.23c-.14,0-.14-.09-.14-.23"/><path class="cls-1" d="M92.65,50.05h0s0,0,0,0"/><path class="cls-1" d="M102.67,53.23s0,.1,0,.1c.24-.18-.14-.41-.18-.6a.13.13,0,0,1-.14.09c0-.11-.13-.06-.14-.14s.17,0,.19-.1a2.19,2.19,0,0,0-.46,0c-.19-.11-.17-.33-.28-.51h-.09c-.09,0-.08-.23-.14-.27h-.32c-.12-.23-.53-.16-.61-.42-.37.06-.46-.18-.73-.23-.1.09-.3,0-.38,0s.1,0,.1,0-.24,0-.37-.09c0,.12-.1.08-.14.14-.12-.26-.65.06-.69-.33,0-.11.2-.12.09-.23s-.3,0-.46,0-.52-.21-.74-.23-.1,0-.18,0-.25-.06-.32.1l-.23-.19c0,.17-.24,0-.38.09-.06-.23-.34-.25-.55-.13.07-.18-.2,0-.18-.14a2.62,2.62,0,0,0-.33.09c0-.06-.22,0-.28-.09,0,.11-.21.06-.31.05s-.06-.08-.1-.1-.35,0-.32-.09a3.12,3.12,0,0,1-1.38,0c0,.12.09.11.09.19s-.06,0-.08,0,0,.26-.11.23-.15-.14-.09-.28-.17,0-.28-.09-.18-.21-.41-.14c0-.12-.1-.09-.1-.18-.21,0-.26.08-.41,0-.16.35-.46.08-.74.09-.06,0-.06,0-.14,0s-.1,0-.18,0-.24.14-.37.14-.12-.09-.24,0a1.18,1.18,0,0,1-.6.14c0-.06-.06-.09,0-.19-.17-.07,0,.16-.14.14s-.15-.07-.23-.09-.19,0-.28,0-.07-.08-.14-.1H88a1.21,1.21,0,0,1-.42,0c-.09.18-.15.11-.27,0a.2.2,0,0,0,0,.14.12.12,0,0,1-.1-.14c-.14,0-.09.12-.23.09v-.14c-.27,0-.39.08-.65,0,0,.23-.31-.08-.41.09-.07-.05-.11-.13-.23-.14s0,.08-.09.09-.21,0-.33,0h-.18c-.07,0,0,.22-.14.14s0-.11-.09-.1c.09.18,0,.17-.1.28s0,.25-.09.23-.09-.12-.18-.13-.14.2-.28.22a.16.16,0,0,1-.14-.22.48.48,0,0,1-.23-.14l-.09-.1s0-.18-.14-.13.1.15,0,.13-.09-.09-.14-.13c-.38,0-.46.21-.74.27.06.13.18.34.32.24s-.16-.2,0-.24a.15.15,0,0,1,.15.1c-.1.16,0,.22,0,.37H83a.75.75,0,0,0-.46-.37c0-.27.32-.14.37-.32a.52.52,0,0,0-.51.08c-.22-.2-.36,0-.55.1s-.17,0-.28,0,.08.14,0,.28a.33.33,0,0,0-.42.18c-.08,0-.27.06-.28,0s.45-.05.37-.37c-.09-.11-.13.06-.28,0s-.11-.13-.22-.14-.15.11-.28.1-.33-.27-.46-.19c0,.15.13.2,0,.33-.1-.08-.15-.19-.33-.19s.12.17,0,.19-.21-.13-.28-.24a1.87,1.87,0,0,0-.64.1c-.09,0-.18,0-.28,0s0,.23-.1.28-.37,0-.41-.19-.26.14-.32,0,.21,0,.14-.19-.35.11-.56,0-.15.11-.23.14-.09-.18-.23-.19c0,.33-.3,0-.37.14s.23,0,.19.14-.22,0-.19.1.06.22.14.27c-.2-.08-.13.19-.19.24s-.2,0-.27.09a.56.56,0,0,0-.51-.23c0-.15-.16-.23-.18-.32s.1-.16,0-.24-.13.16-.28.14-.44.06-.69.19c0-.13,0-.27-.33-.23.13.27-.24.27-.41.27s.07.12,0,.14-.05,0-.1,0a.37.37,0,0,0,0-.27c-.27,0-.52.18-.69.18,0,0,.05,0,0,.09,0-.12-.4.06-.37-.14-.19,0-.28.18-.46.23s-.19-.08-.32-.09-.08.14-.14.19-.18.1-.33.09-.2-.21-.32-.09-.16,0-.28,0-.1.05-.18.05-.15-.05-.19-.05-.06.08-.13.1-.13,0-.19,0-.19.23-.32.13c0,.13.15.1.09.28.08,0,.12-.07.14,0s-.22.05-.33.09,0,.15-.09.1c-.1-.23-.4-.1-.55-.1s-.11-.16-.14-.27,0-.09.09-.1.18.1.33.1c0-.28-.23,0-.23-.19-.22,0-.3.21-.51.09-.07.26-.28.14-.37.33,0,0,.15.17,0,.18a.67.67,0,0,0-.32-.18c0,.08.14.15,0,.18-.09-.13-.16.06-.23,0s-.07-.09-.09-.09-.11,0-.14-.05-.12.19-.22.22-.29,0-.33,0,.14.12.09.29-.07.15-.19.13-.14-.06-.13-.18.12-.06.09-.18c-.45-.17-.82.31-1.29.13a.73.73,0,0,1-.56.23c-.06.12.19.15,0,.19a1.15,1.15,0,0,0-.28-.09c-.06.1.12.17,0,.18s-.27.07-.41,0c0,.15-.14.1-.23.14s-.19.23-.28.1c-.08.07-.1.2-.19.28s-.09.06-.14.09a3.89,3.89,0,0,1-.41.18.41.41,0,0,0-.28,0,.5.5,0,0,0-.13.36s-.06,0,0,0,0,0,0,.05-.09,0-.09,0a1.76,1.76,0,0,0,0,.23c-.16,0-.17,0-.24.09s-.09,0,0,.18a.24.24,0,0,0-.23.1c.19.11,0,.17,0,.37.06,0,.13,0,.14,0s0,.22-.14.1c-.06.17.27.3,0,.23.08.07,0,.19.1.23s0-.07,0,0,0,.1,0,.13.16,0,.19.19.08.35.13.55a.52.52,0,0,1,.42.33c.22-.07.19.14.37.14,0-.14,0-.26.13-.24s0,.26.14.28.45.14.65.19c0-.06,0-.14,0-.14s.09.06.13.09.1,0,.14,0,0,.15.09.18.21-.13.37-.13a1.46,1.46,0,0,1,.74.41c.14,0,.06-.16.18-.14s0,.13,0,.23a1.33,1.33,0,0,1,.42,0,.25.25,0,0,1,.23-.13.91.91,0,0,0,.55.09c0,.15.08,0,.23.09.09-.17-.07-.12,0-.32h.27c0,.19.09.26.14.37,0-.1.17,0,.23,0s.1-.13.18-.14.07.08.05.18c.16,0,.14-.14.23-.18,0,.16.12,0,.14.09s-.06.24,0,.23.22,0,.24-.14c.21,0,.35.29.5.19-.14-.06-.28-.1-.28-.28,0,0,.06,0,.1,0,.13.17.19,0,.37,0,0,.16,0,.2.14.23s0-.14.13-.14.14.39.23.56c.21,0,.31.21.42,0,.12,0,0,.17.18.13s.12-.16.23-.18c.18.15.36-.23.51,0s0,.1,0,.18a.43.43,0,0,0,.51-.09c0,.07,0,.17.14.18s.09-.33.28-.36,0,.21.09.23c0-.14.13,0,.14,0a.87.87,0,0,0,.28.19c0-.14.22-.06.28-.14,0,.15.07.14.13.18s.12-.13.24-.14.08.25.22.28,0-.25.1-.28a.23.23,0,0,0,0,.14c.17-.06.17-.1.38,0,.08-.1.14-.22.32-.23s-.1.09-.1.19.1-.1.19-.1c0,.23.31.1.37.23s-.1.09,0,.23a.63.63,0,0,1,.65,0c.11,0-.09-.17,0-.23s.12.12.19.19.08,0,.09,0,0,.08,0,.09a1.82,1.82,0,0,0,.37.09c.05-.1.05-.25.19-.28a.4.4,0,0,0,.41.32c.08,0,0-.11.14-.08s.16.27.37.27.12-.16.28-.14.26.09.46,0c0-.08,0-.11-.13-.1s0-.17.08-.18c0,.14.19.18.33.23,0-.2.14-.16.23-.23s.07.09,0,.18c.25,0,.34.13.51.19s.11-.17.19-.23h.18c0,.11-.2.13-.09.23s0-.16.23-.09c0,0,0-.13.05-.14a.27.27,0,0,1-.05.19c.13,0,.12.06.23,0s0-.2.14-.19.15.16.28.19,0-.13,0-.14.18,0,.14.19c.19,0,.09-.22.28-.19V59c.2-.13.34.18.41-.09,0,.09-.06.28.09.24s.1-.24.14-.47c0-.06-.08,0-.09-.09.2,0-.05-.18.09-.23,0,.1.2,0,.23.14s-.08.22,0,.41c.28,0,.58-.07.65-.32-.1,0-.14,0-.14-.14s.12.08.18.09.37,0,.47-.09c0,.11,0,.15,0,.32.19-.06.36.13.41,0s-.14-.22-.05-.23c.1.21.31,0,.37.23.15,0,.09-.13.24-.1s.23.13.27,0c-.11,0-.14-.07-.18-.14.14-.16.19.07.23.1s.22,0,.32.09.09-.16.23-.14-.13-.19,0-.23.15.19.23.28c.32,0,.38-.18.61-.23s.25,0,.32,0,.08.09.14.09a.4.4,0,0,1,.13-.09c.06,0,.22,0,.29,0s.06,0,.13,0,.29,0,.46,0a5.52,5.52,0,0,0,.92,0c.1,0,.17-.21.28-.09.1-.07-.06-.12,0-.14s.19.08.37,0,.41,0,.6.05c.06-.19.2,0,.41-.05,0-.16-.14-.14-.14-.27l.6.13c.15-.05.08-.32.24-.37s0,.38.23.41c.11-.14-.1-.32.13-.32a.3.3,0,0,1,0,.24c.09,0,.3,0,.37,0s0,.08,0,.08.18-.06.27,0,.11.1.14.1a.74.74,0,0,0,.23-.33c-.2-.24-.14-.7.28-.51.11,0,0-.13.14-.14a.93.93,0,0,1,.27.19v.32c-.08.07-.16,0-.22.1,0,0,0-.06-.09,0a.14.14,0,0,0,0-.19h-.19c-.07.08,0,.24,0,.42,0,0,.09,0,.09,0,.29,0,.36-.26.51-.42.24,0,.29-.11.42-.19.15.07.27.29.41.1,0,.12,0,.2.14.18s0-.11.14-.18.13.14.32.09c0-.08,0-.1,0-.19s0,.14.18.1.15-.26.28-.14c.11,0-.1-.18,0-.23s-.06.15.09.19a.8.8,0,0,1,.65-.19c.07-.16.4-.19.6-.19s.14.08.23.1.24,0,.37,0,.2.17.32.23c0-.29.2-.12.28-.1-.1-.17,0-.26.23-.23v.14a.89.89,0,0,0,.46-.27c0-.05-.17,0-.14-.14s.31.08.42,0,0-.17,0,0c.15,0,.19-.12.28-.18,0,.14.1,0,.19,0s0,.25.14.32,0-.14.09-.18c.07.15.13-.09.18-.1a.44.44,0,0,0,.37-.14c.08,0,.21,0,.14-.18s-.18.12-.37.1c0-.14-.23-.06-.28-.14,0-.3.16-.37.09-.7-.06,0-.23.05-.22,0s.09-.16.18-.19.29.07.37,0,0-.1.09-.1,0,.1,0,.1.2,0,.19,0,0,.23-.06.32c.23.09.23,0,.42-.09.28.22.57-.09.88,0V55.5c.15,0,.14-.07.23-.09a1.36,1.36,0,0,0,.41.09c.15-.1-.24-.21,0-.37.06.12.1.24.23.28-.08-.17.11,0,.13,0s.16-.16.1-.19-.17,0-.19,0-.07-.11,0-.14.19.2.42.14-.06-.48-.13-.64h.22c0,.07,0,.17,0,.18s0-.19.09-.23a2.58,2.58,0,0,0,.51-.09c-.06.14,0,.16.14.19a1.14,1.14,0,0,0,.23-.33c0-.06-.14-.11-.14-.22a.28.28,0,0,1,.19,0c-.09-.23-.1-.36,0-.51s-.2-.23-.09-.29M69.2,57.11s0,0,0,0,0-.06,0-.1-.09,0-.1,0c-.11-.13,0-.14.19-.09a.28.28,0,0,0,0,.09m.28,0c0,.05-.24,0-.23-.1.08.07.1,0,.09-.09.07,0,.18,0,.14.19M71.24,51c.12,0,.26,0,.32.05s-.38.11-.32-.05m.46,6.55c0-.14.24-.09.23,0s-.12-.06-.23,0m3-6.92a.19.19,0,0,1,.19-.23c0,.17-.06.22-.19.23m2.58,7.52c.14,0,.2.09.19.24a.46.46,0,0,1-.19-.24m1.44-7.8c-.13,0-.14-.1-.14-.22s.23.13.14.22m.83,0c-.12,0-.15-.06-.14-.18h.14Zm4.8,8.22c-.19,0-.12-.19-.28-.18,0-.11.26,0,.37,0,0,.15-.12.09-.09.23m1-8.17q0-.21-.18-.18c0-.12.07-.14.09-.23a2.3,2.3,0,0,0,.37.32c0,.16-.14,0-.28.09m4.25,7.57a.34.34,0,0,1,0-.28c.16,0,.2.32,0,.28m1.38,0c-.08,0-.1-.08-.09-.19s.09.1.18.1-.09,0-.09.09m0-7.66c0-.14.2-.26-.05-.19,0-.14.13-.06.23,0s0,.27-.18.23m.51-.32c-.09,0-.28.06-.23-.1s.26-.07.23.1M94.59,57c-.16,0-.21-.14-.37-.05,0-.24.09-.28.18-.37.06.17.1.08.23.14s0,.17,0,.28m2.91-.7c-.21,0-.21-.2-.23-.37,0,0,.08,0,.09,0a.31.31,0,0,1,.14.41m2.68-1.47c.07-.12.25.06.23.18s-.1-.17-.23-.18m.36.18c0-.15.12-.1.14-.18.19,0,0,.18-.14.18"/></g></g></svg>