<svg xmlns="http://www.w3.org/2000/svg" viewBox="0 0 250.36 35.08"><defs><style>.cls-1{fill:#221714;}</style></defs><title>logo-tambpurine</title><g id="レイヤー_2" data-name="レイヤー 2"><g id="logo-tambpurine"><path class="cls-1" d="M13.76,34.39c-5.66.88-11.25-1.38-11-8V14.89H0V9.48H2.75V0H9.28V9.48h4.48v5.41H9.28V26.24c0,1.62,1.63,2.79,4.48,2.45Z"/><path class="cls-1" d="M33.24,34.39l-.89-2.21a7.76,7.76,0,0,1-6,2.75c-6.54,0-10-4.13-10-8.4,0-7.42,9-10,15.57-7.91,0-3.15-2.46-4.27-5-4.27a13.59,13.59,0,0,0-6.69,1.91L18,12.14a15.12,15.12,0,0,1,9.58-3.39c5.7,0,11,3.44,11,10.7V34.39ZM32,27.66V23.73c-3.2-1.43-9.28-1.23-9.38,2.36-.06,1.72,1.76,3.34,5,3.34A7.88,7.88,0,0,0,32,27.66"/><path class="cls-1" d="M64.28,19.75v14.8H58V19.65c.09-3.78-2.31-5-4.82-5a11.9,11.9,0,0,0-3.53.69V34.55H42.91V10.91A37,37,0,0,1,53,8.79c2.95,0,6.59.69,8.16,3.89,1.47-2.85,4.62-3.79,7.37-3.79,5.85,0,10.66,2.61,10.66,11v14.7H72.68V19.75c0-3.49-2-4.81-4.17-4.81s-4.23,1.52-4.23,4.81"/><path class="cls-1" d="M90.23,0V9.43a16.36,16.36,0,0,1,3.63-.49,12.94,12.94,0,0,1,12.73,13.12A12.57,12.57,0,0,1,93.52,34.83a28.74,28.74,0,0,1-10-1.62V0Zm3.29,28.94c4.17,0,6.43-3.69,6.38-6.88a6.88,6.88,0,0,0-6.82-7,7.86,7.86,0,0,0-2.85.54V28.64a25,25,0,0,0,3.29.3"/><path class="cls-1" d="M122.67,35.08A12.77,12.77,0,0,1,109.5,22c0-7.86,5.7-13.17,13.17-13.17S135.79,14.1,135.79,22a12.7,12.7,0,0,1-13.12,13.12m0-6.14a6.58,6.58,0,0,0,6.49-7c0-4.86-3.35-7-6.49-7a6.63,6.63,0,0,0-6.58,7,6.73,6.73,0,0,0,6.58,7"/><path class="cls-1" d="M162.32,33A30.2,30.2,0,0,1,152,34.88c-7,0-12.78-4-12.78-11.54V8.92h6.69V23.39c-.2,5.15,5.4,6.58,9.63,5.1V8.92h6.78Z"/><path class="cls-1" d="M172.77,9l.55,2.61a7.88,7.88,0,0,1,11.44-.79l-2.85,5.06c-3.14-2.06-8-1.33-8,2.75V34.54h-6.63V9Z"/><path class="cls-1" d="M188.17.05h6.68V6.68h-6.68Zm6.73,34.34h-6.73V8.93h6.73Z"/><path class="cls-1" d="M199.47,10.76c9.09-3.29,22.94-3.29,23.09,9.33v14.3h-6.68V20.15c.05-5.51-5.6-6.49-9.64-4.82V34.39h-6.77Z"/><path class="cls-1" d="M248,30.22a12.88,12.88,0,0,1-9.92,4.66c-8.5,0-12.78-6.58-12.72-13S229.78,9,238,8.94c7.27,0,12.33,5.41,12.33,12.38a18,18,0,0,1-.3,3.34h-18c1.13,4.92,8,5.85,12.13,2.21ZM243.78,19.5a5.41,5.41,0,0,0-5.7-4.76,5.74,5.74,0,0,0-6,4.76Z"/><path class="cls-1" d="M121.3,12.59c-.57-1.6,1.34-8.18,1.34-8.18a27.17,27.17,0,0,0-7.83,5.07A15.77,15.77,0,0,0,109.5,22"/></g></g></svg>