<svg id="レイヤー_1" data-name="レイヤー 1" xmlns="http://www.w3.org/2000/svg" viewBox="0 0 354 190"><defs><style>.cls-1{fill:#000000;}</style></defs><title>アートボード 1</title><path class="cls-1" d="M26,11.83H.33V-.38H65.78V11.83H40.15V77.72H26ZM78.65-.38h25.19c8.47,0,12.32.66,15.73,2.2,7.81,3.52,12.76,11,12.76,21.34,0,9.35-5,18-13.2,21.34v.22a19.07,19.07,0,0,1,2.64,3.85l16.06,29.15H122L106.48,48.57H92.84V77.72H78.65ZM105.6,36.25c7.59,0,12.32-4.51,12.32-12.32,0-7.48-3.19-12.1-14.3-12.1H92.84V36.25ZM194,57.7H166.61l-6.6,20H145.38l27.5-78.1h14.85l27.5,78.1H200.6ZM180.25,13.15s-1.76,7.7-3.3,12.1L170,46.15h20.46l-6.93-20.9c-1.43-4.4-3.08-12.1-3.08-12.1ZM225.76-.38h14.19l29.59,45.1A118.25,118.25,0,0,1,276,56.82h.22s-.77-7.48-.77-12.1V-.38h14.08v78.1H275.48l-29.59-45a118.26,118.26,0,0,1-6.49-12.1h-.22s.77,7.48.77,12.1v45H225.76ZM309.46,57.7S317.93,66,328.93,66c5.94,0,11.33-3.08,11.33-9.46,0-14-36.85-11.55-36.85-35.53,0-13,11.22-22.66,26.18-22.66,15.4,0,23.32,8.36,23.32,8.36l-6.16,11.55s-7.48-6.82-17.27-6.82c-6.6,0-11.77,3.85-11.77,9.35,0,13.86,36.74,10.45,36.74,35.42C354.45,68.59,345,79,328.71,79c-17.38,0-26.95-10.67-26.95-10.67ZM9.79,110.44H37.73c14.08,0,24.09,7.26,24.09,20.13,0,7.26-3.52,13.53-9.46,16.72v.22C60.94,150,65,158,65,165.88c0,15.62-12.54,22.66-26.95,22.66H9.79Zm27.94,31.9c6.16,0,9.68-4.4,9.68-10s-3.3-9.68-9.9-9.68H24v19.69Zm1.43,34c7.26,0,11.33-4.73,11.33-11.33s-4.18-11.22-11.33-11.22H24v22.55Zm197.41-65.89h14.19v31.79h10.12l18.37-31.79h15.4l-22.11,37.18v.22L296,188.54H280l-19.14-34.1H250.76v34.1H236.57Zm73,58.08s8.47,8.25,19.47,8.25c5.94,0,11.33-3.08,11.33-9.46,0-14-36.85-11.55-36.85-35.53,0-13,11.22-22.66,26.18-22.66,15.4,0,23.32,8.36,23.32,8.36L346.85,129s-7.48-6.82-17.27-6.82c-6.6,0-11.77,3.85-11.77,9.35,0,13.86,36.74,10.45,36.74,35.42,0,12.43-9.46,22.88-25.74,22.88-17.38,0-26.95-10.67-26.95-10.67ZM181.53,109a40.18,40.18,0,0,0-31,14c.18.25.38.48.56.73h0a42.29,42.29,0,0,1,6.66,14.64A25.35,25.35,0,0,1,181.53,122c14.3,0,25.74,11.44,25.74,26.84,0,15.61-10.81,27.27-24.54,27.91-.4,0-.8,0-1.2,0-14.14,0-25.47-11.61-25.73-27.39,0-.18,0-.37,0-.55a39.84,39.84,0,0,0-7.32-23.26C141.29,115.45,129.4,109,115.42,109c-1.06,0-2.09,0-3.12.12-21.42,1.51-37.25,18.39-37.25,39.7,0,23,17.38,40.92,40.37,40.92a39.73,39.73,0,0,0,31.06-14.38c-.2-.27-.41-.53-.6-.81a43.86,43.86,0,0,1-6.62-14.91c-3.81,10.3-13,17.13-23.84,17.13-14.3,0-25.74-11.88-25.74-27.94,0-14.26,9.81-25.12,22.62-26.65a26.29,26.29,0,0,1,3.12-.19c14.3,0,25.74,11.44,25.74,26.83h0c0,.18,0,.36,0,.54h0a41.68,41.68,0,0,0,7.3,23.37,39.66,39.66,0,0,0,33.05,17l1.2,0c22.39-.61,39.17-18.3,39.17-40.89C221.9,126.47,204.52,109,181.53,109Z"/></svg>
